<svg id="visual" viewBox="0 0 900 450" width="900" height="450" xmlns="http://www.w3.org/2000/svg" xmlns:xlink="http://www.w3.org/1999/xlink" version="1.1"><rect x="0" y="0" width="900" height="450" fill="#fff"></rect><defs><linearGradient id="grad1_0" x1="50%" y1="100%" x2="100%" y2="0%"><stop offset="10%" stop-color="#888faf" stop-opacity="1"></stop><stop offset="90%" stop-color="#888faf" stop-opacity="1"></stop></linearGradient></defs><defs><linearGradient id="grad1_1" x1="50%" y1="100%" x2="100%" y2="0%"><stop offset="10%" stop-color="#888faf" stop-opacity="1"></stop><stop offset="90%" stop-color="#ffffff" stop-opacity="1"></stop></linearGradient></defs><defs><linearGradient id="grad2_0" x1="0%" y1="100%" x2="50%" y2="0%"><stop offset="10%" stop-color="#888faf" stop-opacity="1"></stop><stop offset="90%" stop-color="#888faf" stop-opacity="1"></stop></linearGradient></defs><defs><linearGradient id="grad2_1" x1="0%" y1="100%" x2="50%" y2="0%"><stop offset="10%" stop-color="#ffffff" stop-opacity="1"></stop><stop offset="90%" stop-color="#888faf" stop-opacity="1"></stop></linearGradient></defs><g transform="translate(900, 450)"><path d="M-180 0C-172 -21.4 -163.9 -42.9 -156.1 -64.7C-148.4 -86.5 -140.9 -108.7 -126.6 -126.6C-112.3 -144.5 -91.1 -158.1 -68.9 -166.3C-46.6 -174.5 -23.3 -177.2 0 -180L0 0Z" fill="#c3c5d6"></path><path d="M-90 0C-86 -10.7 -82 -21.4 -78.1 -32.3C-74.2 -43.2 -70.4 -54.3 -63.3 -63.3C-56.1 -72.2 -45.6 -79.1 -34.4 -83.1C-23.3 -87.2 -11.7 -88.6 0 -90L0 0Z" fill="#888faf"></path></g><g transform="translate(0, 0)"><path d="M180 0C170.6 21.2 161.2 42.4 152.4 63.1C143.7 83.8 135.7 104 122.3 122.3C108.9 140.6 90.2 157 68.9 166.3C47.6 175.6 23.8 177.8 0 180L0 0Z" fill="#c3c5d6"></path><path d="M90 0C85.3 10.6 80.6 21.2 76.2 31.6C71.9 41.9 67.9 52 61.2 61.2C54.5 70.3 45.1 78.5 34.4 83.1C23.8 87.8 11.9 88.9 0 90L0 0Z" fill="#888faf"></path></g></svg>