<svg width="82" height="82" viewBox="0 0 82 82" fill="none" xmlns="http://www.w3.org/2000/svg">
<g clip-path="url(#clip0_1_3637)">
<path d="M61.0212 0.665085H2.69233C1.83777 0.665085 1.14502 1.35784 1.14502 2.21239V55.4774C1.14502 56.3319 1.83777 57.0247 2.69233 57.0247H61.0212C61.8758 57.0247 62.5685 56.3319 62.5685 55.4774V2.21239C62.5685 1.35784 61.8758 0.665085 61.0212 0.665085Z" fill="white"/>
<path d="M17.596 52.0009H8.42603V42.831H17.596V52.0009ZM17.596 24.2565H8.42603V33.4265H17.596V24.2565ZM17.596 5.68882H8.42603V14.8588H17.596V5.68882Z" fill="#99CBDF"/>
<path d="M17.596 33.7681H8.42604C8.23849 33.7681 8.09112 33.6208 8.09112 33.4332V24.2632C8.09112 24.0757 8.23849 23.9283 8.42604 23.9283H17.596C17.7836 23.9283 17.9309 24.0757 17.9309 24.2632V33.4332C17.9309 33.6208 17.7836 33.7681 17.596 33.7681ZM8.76095 33.0983H17.2611V24.5982H8.76095V33.0983ZM17.596 15.2004H8.42604C8.23849 15.2004 8.09112 15.0531 8.09112 14.8655V5.68882C8.09112 5.50127 8.23849 5.3539 8.42604 5.3539H17.596C17.7836 5.3539 17.9309 5.50127 17.9309 5.68882V14.8588C17.9309 15.0464 17.7836 15.1937 17.596 15.1937V15.2004ZM8.76095 14.5306H17.2611V6.02373H8.76095V14.5239V14.5306ZM17.596 52.3426H8.42604C8.23849 52.3426 8.09112 52.1952 8.09112 52.0076V42.8377C8.09112 42.6501 8.23849 42.5027 8.42604 42.5027H17.596C17.7836 42.5027 17.9309 42.6501 17.9309 42.8377V52.0076C17.9309 52.1952 17.7836 52.3426 17.596 52.3426ZM8.76095 51.6727H17.2611V43.1726H8.76095V51.6727ZM61.0212 57.3663H2.69228C1.65405 57.3663 0.810059 56.5223 0.810059 55.4841V2.2124C0.810059 1.17416 1.65405 0.33017 2.69228 0.33017H61.0212C62.0594 0.33017 62.9034 1.17416 62.9034 2.2124V55.4774C62.9034 56.5156 62.0594 57.3596 61.0212 57.3596V57.3663ZM2.69228 1C2.02245 1 1.47989 1.54256 1.47989 2.2124V55.4774C1.47989 56.1472 2.02245 56.6898 2.69228 56.6898H61.0212C61.691 56.6898 62.2336 56.1472 62.2336 55.4774V2.2124C62.2336 1.54256 61.691 1 61.0212 1H2.69228ZM54.142 47.4126C54.142 47.225 53.9946 47.0777 53.8071 47.0777H22.8877C22.7001 47.0777 22.5528 47.225 22.5528 47.4126C22.5528 47.6002 22.7001 47.7475 22.8877 47.7475H53.8071C53.9946 47.7475 54.142 47.6002 54.142 47.4126ZM55.4616 28.8449C55.4616 28.6573 55.3142 28.51 55.1267 28.51H22.8877C22.7001 28.51 22.5528 28.6573 22.5528 28.8449C22.5528 29.0324 22.7001 29.1798 22.8877 29.1798H55.1267C55.3142 29.1798 55.4616 29.0324 55.4616 28.8449ZM55.6223 10.2772C55.6223 10.0896 55.475 9.94225 55.2874 9.94225H22.8877C22.7001 9.94225 22.5528 10.0896 22.5528 10.2772C22.5528 10.4647 22.7001 10.6121 22.8877 10.6121H55.2941C55.4817 10.6121 55.629 10.4647 55.629 10.2772H55.6223Z" fill="#292929"/>
<path d="M77.1305 24.5446L48.8101 24.9532C46.6398 24.9866 44.9184 26.8019 45.0054 28.9721L45.8695 49.7034L43.793 46.4079C39.5262 41.3506 33.3571 43.2395 33.3839 48.9867L35.447 57.4936L36.3043 59.2284H50.6789L50.6387 57.2591L49.8483 56.0065H73.3929L81.3304 30.131C82.1878 27.3244 80.0644 24.4977 77.1305 24.5379V24.5446Z" fill="#007AAB"/>
<path d="M80.9218 26.0718C80.0176 24.8661 78.6444 24.2163 77.1239 24.2096L68.6036 24.3369C68.463 24.5848 68.2821 24.8125 68.0745 25.0134L77.1373 24.8795C78.4501 24.8795 79.609 25.4421 80.386 26.4737C81.163 27.5052 81.3907 28.8047 81.0089 30.0372L78.3765 38.611C78.564 38.8589 78.7114 39.1469 78.8119 39.4684L81.6452 30.2314C82.0873 28.7913 81.8194 27.2708 80.9151 26.0651L80.9218 26.0718Z" fill="#292929"/>
<path d="M46.2714 61.8809C46.2714 61.8809 54.6845 67.9094 55.0931 68.7065C55.7294 69.9457 55.2538 74.6747 55.3007 75.7197C55.3342 76.3493 54.4634 76.4431 54.4634 76.4431C54.0012 76.5435 53.7936 76.5636 53.3783 76.5636C52.8826 76.5636 52.4941 76.1483 52.5276 75.6527C52.5879 74.8355 52.6616 72.9131 52.675 72.6518C52.7554 70.4615 41.9644 64.7947 41.9644 64.7947M41.7299 69.517C41.7299 69.517 43.8265 73.6901 42.3127 76.3292C41.6429 77.5081 36.8067 79.4037 36.6459 79.6181C36.4852 79.8324 36.6459 80.0937 36.6459 80.0937C36.6459 80.0937 44.0274 80.4956 45.7288 79.9463C47.0886 79.5109 46.4589 69.517 46.4589 69.517H41.7165H41.7299Z" fill="#FFD7C5"/>
<path d="M64.4708 46.7093C64.4708 46.7093 64.4038 46.7093 64.3703 46.6959L63.8813 46.5418C63.7072 46.4882 63.6067 46.294 63.667 46.1198C63.7273 45.9457 63.9081 45.8452 64.089 45.8988L64.578 46.0528C64.7521 46.1064 64.8526 46.294 64.799 46.4748C64.7521 46.6155 64.6249 46.7093 64.4775 46.7093H64.4708Z" fill="#292929"/>
<path d="M43.552 46.5686C40.3301 46.3007 37.6843 48.8929 37.7312 52.0009L34.248 52.3359C30.4233 52.7043 29.0769 57.6074 32.1783 59.8782L40.0689 65.6521L41.1339 71.6605H50.5182L48.3882 62.6847L48.4819 62.1489L50.6254 62.0216L60.847 61.8809L61.202 60.8762L63.0508 61.2379C67.0229 62.0082 70.7136 58.9672 70.7069 54.9214L71.1557 50.3599L43.552 46.5753V46.5686Z" fill="#CA6F20"/>
<path d="M46.8744 81.0381H34.0873C33.7859 81.0381 33.5381 80.797 33.5381 80.4956V79.819C33.5381 79.2899 33.8663 78.8143 34.3687 78.62C35.6548 78.131 38.1197 77.1799 39.5264 76.5101C40.8459 75.8804 41.6363 75.4316 42.0114 75.1972C42.1856 75.09 42.4 75.09 42.5741 75.1972L42.842 75.3512C43.0698 75.4785 43.1703 75.7531 43.0899 75.9943C42.9961 76.2823 43.1502 76.5904 43.4382 76.6842L44.0276 76.8785C44.3693 76.9923 44.7511 76.9521 45.0659 76.7713L45.9166 76.2823C46.285 76.0747 46.7539 76.2622 46.8677 76.6641C47.0151 77.1732 47.1892 77.8832 47.2897 78.6133C47.3902 79.397 47.417 80.0602 47.417 80.4889C47.417 80.7903 47.1691 81.0381 46.8677 81.0381H46.8744ZM58.6032 67.829C58.1946 67.6951 57.5582 67.5142 56.7812 67.3669C56.0511 67.2262 55.3277 67.1726 54.7985 67.1525C54.3765 67.1391 54.055 67.5209 54.1354 67.9362L54.3296 68.9008C54.4033 69.2558 54.3229 69.6242 54.1019 69.9189L53.7335 70.4213C53.5526 70.6624 53.211 70.716 52.9699 70.5352C52.7622 70.3811 52.4742 70.3945 52.28 70.5687L52.0455 70.7763C51.8915 70.9103 51.8312 71.1179 51.8781 71.3122C51.9785 71.7409 52.1594 72.6317 52.3469 74.0853C52.5412 75.6393 52.6819 78.2717 52.7421 79.6449C52.7689 80.1807 53.1172 80.6429 53.6196 80.8104L54.2627 81.0247C54.5507 81.1185 54.8588 80.9577 54.9526 80.6697L58.9448 68.5257C59.0386 68.2376 58.8845 67.9228 58.5965 67.829H58.6032Z" fill="white"/>
<path d="M73.1853 30.4458L56.1783 30.1377V28.51L59.5341 26.7617L63.0374 26.7014L63.3522 24.2632C62.89 23.4059 62.7359 22.0327 62.9302 20.3983C63.2852 17.4444 64.799 15.0062 67.1099 15.0062C69.4208 15.0062 71.1691 16.9554 70.9816 19.9294C70.9816 19.9629 70.9816 19.9964 70.9749 20.0299C71.1289 19.8758 71.3433 19.7955 71.5509 19.8423C71.9126 19.916 72.1337 20.3246 72.0399 20.7533C71.9461 21.182 71.5844 21.4633 71.2227 21.3897C71.0351 21.3495 70.8811 21.2222 70.794 21.0413C70.3921 22.5351 69.3874 23.6537 68.1214 24.357L67.8869 26.9024C67.8869 26.9024 71.4973 28.2286 73.1853 30.4458ZM49.7948 27.733C49.7814 27.7999 49.5604 28.7779 49.2656 30.1042C49.6206 30.0171 49.989 29.997 50.3642 30.0707C50.8263 29.9568 51.2952 29.8831 51.7775 29.8697C52.0655 29.863 52.3402 29.8965 52.5947 29.9635C52.6282 29.0994 52.6885 28.4229 52.7822 28.1282C52.9162 27.7062 54.0884 26.2258 54.2492 25.757C54.4367 25.2077 54.5573 25.0268 54.4434 24.712C54.4434 24.6986 54.4233 24.6986 54.4099 24.6919C54.276 24.6383 54.0817 24.8728 54.0817 24.8728C54.0817 24.8728 55.9037 19.9629 55.0463 19.695C54.5037 19.5141 54.1353 20.9208 53.8004 22.093C54.1621 20.8739 53.9143 20.7935 53.4186 20.5591C53.0971 20.5591 52.8157 20.8337 52.4406 21.7447C52.6617 21.1083 52.5411 21.0079 52.0856 20.8069C51.456 20.6461 51.2483 21.6844 51.0876 22.314C51.0608 22.3944 51.0474 22.4547 51.0407 22.4949C51.0608 22.3475 51.0876 21.9657 50.8196 21.825C50.2168 21.5035 49.9087 23.3389 49.8484 23.7475C49.5336 25.8507 49.902 27.244 49.8082 27.7263L49.7948 27.733Z" fill="#FFD7C5"/>
<path d="M79.7294 43.3601C77.3917 29.3606 69.6686 27.7129 69.6686 27.7129L67.9203 27.1502L67.8533 27.3713L67.8332 27.3311C67.8332 27.3311 67.8332 27.398 67.8064 27.5119L67.7193 27.8066C67.505 28.3626 66.8888 29.1999 65.107 29.1262C61.356 28.9655 62.4813 26.7282 62.4813 26.7282C62.4813 26.7282 60.3445 26.5809 57.7858 27.5923C57.4642 27.7196 57.1293 27.8736 56.7944 28.0411L56.7542 27.9138L53.5926 31.129V29.7625L47.745 30.2515L46.479 36.6417H53.2912C52.9295 37.8675 52.695 38.8723 52.7218 39.3277C52.8022 40.9755 53.7333 44.318 53.5457 45.6509C53.3582 46.9906 52.9228 48.7389 52.9228 48.7389L60.5254 49.5895L68.7241 53.8162C68.7241 53.8162 69.2868 51.2641 69.8762 48.0623C70.1977 48.1293 70.5192 48.203 70.8609 48.2767C74.6454 49.1274 76.9228 48.3102 78.2558 47.2786C79.4414 46.361 79.9773 44.8204 79.7294 43.3467V43.3601ZM70.7805 42.5228C70.9479 41.2903 71.0752 40.1248 71.1355 39.1L72.9842 42.6434L70.7738 42.5228H70.7805Z" fill="white"/>
<path d="M73.4667 15.9975C72.7768 14.4904 71.4237 15.0732 71.4907 14.698C71.551 14.3229 70.841 12.7153 68.7176 12.3737C66.5942 12.0321 64.9263 14.1555 64.9263 14.1555C64.9263 14.1555 62.669 12.8828 62.381 15.8234C62.2671 17.009 63.5398 18.7237 63.5398 18.7237L63.6939 17.4042C63.7541 16.8549 63.9886 16.7745 64.3101 16.8884C64.7522 17.0425 65.3751 17.5582 65.978 17.6721C67.4181 17.94 68.3626 16.1784 68.3626 16.1784C68.3626 16.1784 68.2152 18.5898 71.1625 19.0319C71.5644 19.0921 70.995 19.9093 70.995 19.9227C71.0821 19.849 71.2897 19.7687 71.4974 19.7218L70.8276 21.048C70.8276 21.048 70.8142 21.048 70.8142 21.0346C70.7941 21.0949 70.774 21.1485 70.7539 21.2021L70.0907 22.515C69.8161 22.8968 69.4678 23.2183 69.0056 23.5197L67.82 24.8862C67.82 24.8862 70.4993 24.0422 72.0601 22.4413C72.6428 22.0059 73.172 21.4098 73.4131 20.606C73.6342 19.8758 73.7078 19.1591 73.7078 18.5228C73.882 17.6453 73.882 16.8616 73.4801 15.9908L73.4667 15.9975Z" fill="#292929"/>
<path d="M13.0681 48.7389C12.9877 48.7389 12.9073 48.7121 12.8403 48.6518L10.3753 46.3543C10.3017 46.2873 10.2682 46.2002 10.2682 46.1064C10.2682 46.026 10.295 45.9457 10.3553 45.8787C10.4825 45.7447 10.6902 45.738 10.8308 45.8586L13.0614 47.9351L18.4066 42.5898C18.5406 42.4558 18.7482 42.4558 18.8822 42.5898C18.9492 42.6568 18.9827 42.7439 18.9827 42.8243C18.9827 42.9046 18.9492 42.9984 18.8822 43.0587L13.3092 48.6317C13.2422 48.6987 13.1551 48.7322 13.0748 48.7322L13.0681 48.7389ZM13.3025 30.0707L18.8755 24.4977C18.9425 24.4307 18.976 24.3436 18.976 24.2632C18.976 24.1829 18.9425 24.0891 18.8755 24.0288C18.7415 23.8948 18.5339 23.8948 18.3999 24.0288L13.0547 29.374L10.8241 27.2976C10.6902 27.1703 10.4758 27.177 10.3486 27.3177C10.2883 27.3846 10.2615 27.465 10.2615 27.5454C10.2615 27.6325 10.295 27.7263 10.3686 27.7932L12.8336 30.0908C12.9006 30.1511 12.981 30.1778 13.0614 30.1778C13.1417 30.1778 13.2355 30.1444 13.2958 30.0774L13.3025 30.0707ZM13.3025 11.503L18.8755 5.92996C18.9425 5.86297 18.976 5.7759 18.976 5.69552C18.976 5.61514 18.9425 5.52136 18.8755 5.46107C18.7415 5.32711 18.5339 5.32711 18.3999 5.46107L13.0547 10.8063L10.8241 8.72985C10.6902 8.60258 10.4758 8.60928 10.3486 8.74994C10.2883 8.81693 10.2615 8.89731 10.2615 8.97769C10.2615 9.06477 10.295 9.15854 10.3686 9.22552L12.8336 11.523C12.9006 11.5833 12.981 11.6101 13.0614 11.6101C13.1417 11.6101 13.2355 11.5766 13.2958 11.5096L13.3025 11.503Z" fill="#007AAB"/>
<path d="M64.7523 25.5493C64.2231 25.5493 63.7543 25.335 63.3858 24.9197C62.6356 24.0757 62.3476 22.4078 62.5954 20.3581C63.004 16.9554 64.8193 14.6713 67.1101 14.6713C68.2488 14.6713 69.2938 15.12 70.0507 15.9305C70.8813 16.8147 71.33 18.074 71.33 19.5074C71.4238 19.494 71.5243 19.5074 71.6181 19.5208C72.1606 19.6347 72.4956 20.2175 72.3683 20.827C72.241 21.4365 71.6985 21.8384 71.1559 21.7246C71.0822 21.7112 71.0152 21.6844 70.9549 21.6576C70.0641 23.9819 67.5924 25.556 64.7523 25.556V25.5493ZM67.1101 15.3411C64.8729 15.3411 63.5667 17.8998 63.2586 20.4385C63.0375 22.2738 63.272 23.781 63.8882 24.4776C64.1294 24.7455 64.4107 24.8795 64.7523 24.8795C66.9962 24.8795 69.7492 23.6537 70.4727 20.9543C70.5062 20.8203 70.6267 20.7198 70.7607 20.7064C70.9014 20.7064 71.0286 20.7667 71.0956 20.894C71.1224 20.9476 71.1827 21.0413 71.2899 21.0614C71.4573 21.1016 71.6583 20.9275 71.7051 20.6863C71.7587 20.4452 71.6516 20.2108 71.4707 20.1773C71.3836 20.1572 71.2832 20.1974 71.1961 20.2777C71.0956 20.3782 70.9482 20.405 70.821 20.3447C70.6937 20.2844 70.62 20.1572 70.6267 20.0165V19.9227C70.7205 18.4893 70.332 17.2367 69.5483 16.3994C68.9187 15.7229 68.0412 15.3545 67.0967 15.3545L67.1101 15.3411Z" fill="#292929"/>
<path d="M69.689 48.0891C69.8497 48.2164 70.0038 48.2432 70.1511 48.2231V48.1963C70.0507 48.0757 69.8832 48.0623 69.689 48.0891Z" fill="#292929"/>
<path d="M64.5779 43.5209L63.888 43.4807V43.5075L63.0641 43.3869C62.9167 43.3668 62.7828 43.2998 62.6689 43.2061C62.1732 42.7841 60.713 41.5717 59.8958 41.3573C58.8978 41.1028 57.8997 41.4444 57.471 41.9937C57.1964 42.3487 57.7189 43.0989 58.1275 43.5812C58.3552 43.8491 58.737 43.9362 59.0585 43.7888C59.0853 43.7754 59.1188 43.762 59.1523 43.7553L59.4403 43.6615C59.7618 43.5611 60.1102 43.6749 60.3111 43.9429C60.6795 44.4586 61.356 45.2557 62.1732 45.5907C62.5483 45.7447 63.0775 45.9256 63.6 46.093C63.5799 45.1419 63.9081 44.1773 64.5846 43.5142L64.5779 43.5209Z" fill="#FFD7C5"/>
<path d="M80.0646 43.3065C77.7202 29.2468 70.064 27.4583 69.776 27.398C69.776 27.398 68.3961 26.889 68.2488 26.822L68.5301 23.6403C68.3358 23.9551 68.088 24.2431 67.7799 24.4709L67.5588 26.8689C67.5588 26.9426 67.6526 27.4181 67.8268 27.4717L69.6085 28.0411C69.6085 28.0411 71.5041 28.4765 73.6409 30.5663C75.6169 32.5022 78.2292 36.3068 79.4148 43.4137C79.6426 44.7936 79.1134 46.2136 78.0685 47.0241C76.4073 48.3102 73.949 48.6317 70.9549 47.9552C66.9627 47.0576 64.1829 46.6624 63.1112 46.5284L65.1407 42.5496L72.9912 42.9716C73.1184 42.9783 73.2189 42.9247 73.2859 42.831C73.3529 42.7372 73.3663 42.6166 73.3194 42.5094L71.9194 39.1536C71.8658 39.0196 71.7319 38.9459 71.5979 38.9526L72.0869 35.7642C72.1137 35.5834 71.9864 35.4092 71.8056 35.3824C71.618 35.3556 71.4506 35.4762 71.4238 35.6638L70.4257 42.1678L64.9666 41.8731C64.8125 41.8664 64.712 41.9401 64.6518 42.0539L64.0891 43.1525H63.9283C63.9283 43.1525 63.8681 43.1458 63.8346 43.1525L63.1312 43.052C63.0442 43.0386 62.9705 43.0051 62.9035 42.9515C62.1801 42.3286 60.8337 41.2502 59.9964 41.0358C58.9448 40.7679 57.7793 41.0827 57.2233 41.7927C56.8884 42.2214 57.1095 42.8778 57.8865 43.8022C58.208 44.1907 58.7506 44.3113 59.2663 44.0768L59.5543 43.9831C59.7419 43.9228 59.9362 43.9831 60.05 44.1438C60.4921 44.7534 61.1954 45.5505 62.0528 45.9055C62.2002 45.9658 62.381 46.0327 62.582 46.1064L62.3007 46.6624C62.2471 46.7629 62.2538 46.8767 62.3007 46.9772C62.3542 47.0777 62.448 47.138 62.5619 47.1514C62.5887 47.1514 65.1608 47.4193 69.4746 48.337L69.354 49.1408C69.3272 49.3216 69.4545 49.4958 69.6353 49.5226C69.6554 49.5226 69.6688 49.5226 69.6889 49.5226C69.8497 49.5226 69.997 49.402 70.0171 49.2412L70.131 48.4776C70.352 48.5245 70.5731 48.5714 70.8075 48.625C71.9328 48.8795 72.9309 48.9867 73.8084 48.9867C76.0791 48.9867 77.5594 48.2767 78.4771 47.5667C79.7364 46.5887 80.3526 44.961 80.078 43.3132L80.0646 43.3065ZM71.4439 39.8033L72.4754 42.2817L71.0754 42.208L71.4439 39.81V39.8033ZM62.294 45.2758C61.5437 44.9677 60.894 44.1773 60.5792 43.7419C60.2979 43.3534 59.7955 43.186 59.3333 43.3333L59.0453 43.4271C58.9984 43.4405 58.9582 43.4606 58.9113 43.4807C58.7305 43.5678 58.5094 43.5142 58.3821 43.3601C57.7123 42.5697 57.7056 42.2281 57.7324 42.1946C58.0673 41.7659 58.9314 41.4511 59.8089 41.6721C60.405 41.8262 61.5638 42.6903 62.448 43.4472C62.6088 43.5879 62.803 43.6749 63.0174 43.7084L63.7341 43.8156L62.8767 45.4902C62.6691 45.4165 62.4681 45.3428 62.294 45.2691V45.2758Z" fill="#292929"/>
<path d="M57.3239 31.9797C57.1497 31.9261 56.9621 32.0333 56.9086 32.2074C56.4933 33.6476 56.078 35.2485 55.7966 36.5881C56.0177 36.6283 56.232 36.6886 56.4397 36.7757C56.6875 35.5834 57.0693 34.0629 57.5516 32.395C57.6052 32.2141 57.498 32.0333 57.3239 31.9797Z" fill="#292929"/>
<path d="M62.5217 26.8823C62.669 26.9493 63.1111 26.9827 63.2183 26.976C63.2987 26.9225 63.359 26.8421 63.3724 26.7416L63.5867 25.0737H63.6872C63.6872 25.0737 63.6269 25.0067 63.6001 24.98L63.6872 24.3235C63.4528 24.1159 63.2585 23.8814 63.1044 23.6202L63.004 24.4106L54.7249 24.5312C54.6914 24.491 54.6579 24.4441 54.611 24.4173C55.0866 23.0575 55.8971 20.4854 55.5086 19.695C55.4081 19.494 55.2607 19.4137 55.1602 19.3802C54.9928 19.3199 54.8186 19.34 54.6579 19.4204C54.3698 19.5744 54.1555 19.9361 53.9545 20.4787C53.8474 20.3983 53.7201 20.3246 53.566 20.2576C53.5192 20.2375 53.4723 20.2242 53.4254 20.2242C53.1173 20.2108 52.8292 20.3983 52.5948 20.7265C52.4876 20.6461 52.347 20.5658 52.1728 20.4854C51.9585 20.4318 51.7508 20.4586 51.5699 20.5658C51.2685 20.7466 51.0877 21.1217 50.9604 21.5169C50.7795 21.4298 50.592 21.4298 50.4178 21.5169C49.9088 21.7715 49.6475 22.8432 49.527 23.6939C49.4801 24.0154 49.4533 24.3168 49.4265 24.6048H48.8303C47.6849 24.6316 46.6266 25.0938 45.8429 25.9244C45.0592 26.755 44.6506 27.8401 44.6975 28.9788L45.019 36.6417C45.24 36.6216 45.4678 36.6283 45.6888 36.6417L45.3673 28.9454C45.3271 27.9875 45.6687 27.0765 46.3252 26.3732C46.9883 25.6766 47.8792 25.2814 48.837 25.268H49.3997C49.3863 25.9378 49.4265 26.5072 49.46 26.9359C49.4868 27.2574 49.5069 27.532 49.4868 27.6526C49.4734 27.7263 49.2791 28.6037 49.0045 29.8027L47.7318 29.9099C47.5845 29.9233 47.4572 30.0305 47.4304 30.1778L46.1711 36.568C46.151 36.6685 46.1711 36.769 46.2381 36.8427C46.3051 36.923 46.3989 36.9632 46.4993 36.9632H53.6129C53.8005 36.9632 53.9478 36.8159 53.9478 36.6283V31.2295L54.7383 30.4324C57.8463 26.2392 62.4882 26.8421 62.5351 26.8488L62.5217 26.8823ZM50.1633 23.8011C50.3174 22.7762 50.5719 22.1935 50.6456 22.1265C50.6657 22.1399 50.6791 22.1667 50.6858 22.2069L50.6188 22.7628C50.5987 22.9437 50.7327 23.1111 50.9135 23.1312C50.9269 23.1312 50.9403 23.1312 50.9537 23.1312C51.1212 23.1312 51.2685 23.004 51.2886 22.8365L51.302 22.7159C51.302 22.7159 51.3154 22.7025 51.3154 22.6958C51.3288 22.6623 51.3489 22.6021 51.3556 22.5284C51.3623 22.4949 51.3757 22.4547 51.3891 22.4078C51.3891 22.4078 51.3891 22.4078 51.3891 22.4011L51.4226 22.2738C51.5097 21.9255 51.6704 21.2758 51.8915 21.1485C51.9116 21.1351 51.9384 21.1284 51.9317 21.1217C51.9986 21.1485 52.1728 21.2289 52.1996 21.2557C52.1996 21.2758 52.1996 21.316 52.1929 21.3629L51.9451 22.0662L51.6168 22.9906C51.5566 23.1647 51.6436 23.359 51.8245 23.4192C51.858 23.4326 51.8982 23.4393 51.9384 23.4393C52.079 23.4393 52.2063 23.3523 52.2532 23.2183L52.5814 22.2939C52.6484 22.1332 52.7087 21.9858 52.7489 21.8518C53.0302 21.1753 53.2244 20.9543 53.3517 20.9074C53.633 21.0413 53.7134 21.115 53.546 21.7313C53.5393 21.7581 53.5326 21.7849 53.5259 21.8117L53.4723 22.0059L53.0235 23.5599C52.9699 23.7408 53.0771 23.9216 53.2512 23.9752C53.2847 23.9819 53.3115 23.9886 53.345 23.9886C53.4924 23.9886 53.6263 23.8948 53.6665 23.7475L54.1689 21.9992C54.1689 21.9992 54.1689 21.9925 54.1689 21.9858C54.3364 21.4098 54.6646 20.2576 54.9124 20.0433C55.0397 20.4519 54.6847 22.0662 54.0684 23.8814C54.0684 23.8948 54.055 23.9082 54.0483 23.9216L53.9144 24.3302C53.8608 24.4776 53.8139 24.6182 53.7603 24.7656C53.7536 24.7924 53.7536 24.8125 53.7469 24.8393L53.479 25.6498C53.4187 25.8239 53.5192 26.0115 53.6933 26.0718C53.5526 26.2928 53.3785 26.5474 53.2244 26.7751C52.8024 27.398 52.5345 27.7865 52.4608 28.0344C52.3804 28.2889 52.3269 28.8114 52.28 29.5482L49.681 29.7692C49.9356 28.6573 50.1097 27.8602 50.1231 27.7999C50.1633 27.5923 50.1365 27.3043 50.103 26.9091C50.0427 26.2124 49.9624 25.1608 50.1566 23.8077L50.1633 23.8011ZM53.2579 36.3202H46.8878L48.0198 30.5797L53.2579 30.1443V36.3269V36.3202ZM54.2158 30.0305L53.9278 30.3185V29.7759C53.9278 29.6822 53.8876 29.5951 53.8206 29.5281C53.7536 29.4678 53.6665 29.4343 53.566 29.441L52.9565 29.4946C52.99 28.9052 53.0369 28.4497 53.1039 28.2353C53.1574 28.0746 53.5192 27.5454 53.7804 27.1569C54.2091 26.5273 54.477 26.1321 54.5641 25.8708L54.6579 25.5962C54.7115 25.4555 54.7516 25.3283 54.7784 25.2077L62.8968 25.0871L62.7427 26.2727C62.7025 26.2459 62.6557 26.2258 62.6088 26.2191C62.5619 26.2191 57.5247 25.5426 54.2091 30.0305H54.2158Z" fill="#292929"/>
<path d="M60.6193 47.7207H60.5992L55.9573 36.6551H40.022C39.6134 36.6551 39.3387 37.1173 39.4995 37.5326L43.4046 47.7207H43.3041V49.4154H67.3377V47.7207H60.6193Z" fill="#FAFAFA"/>
<path d="M67.3378 47.3858H60.8203L56.2654 36.5278C56.2119 36.4006 56.0913 36.3202 55.9573 36.3202H40.022C39.7273 36.3202 39.4661 36.4609 39.2919 36.7154C39.1044 36.99 39.0642 37.3383 39.1848 37.6532L42.9961 47.5868C42.976 47.6269 42.9693 47.6738 42.9693 47.7207V49.4154C42.9693 49.6029 43.1167 49.7503 43.3042 49.7503H67.3378C67.5253 49.7503 67.6727 49.6029 67.6727 49.4154V47.7207C67.6727 47.5332 67.5253 47.3858 67.3378 47.3858ZM39.8479 37.0972C39.8747 37.057 39.935 36.9967 40.022 36.9967H55.7363L60.0969 47.3925H43.6391L39.8144 37.4187C39.7675 37.2914 39.801 37.1709 39.8479 37.1039V37.0972ZM43.6391 48.1025H60.2844V49.0805H43.6391V48.1025ZM67.0028 49.0805H60.9543V48.0556H67.0028V49.0805Z" fill="#292929"/>
<path d="M48.4753 62.1489H71.417L75.5498 48.9867C75.5498 48.9867 74.5719 51.7531 73.3059 51.5187C72.8638 51.4383 71.4639 50.5876 69.8295 49.5159C66.1856 47.1246 61.269 48.3638 59.206 52.2019C57.0491 56.2142 54.4836 60.3403 53.0636 60.3403C50.3039 60.3403 48.0198 60.2332 48.0198 60.2332" fill="#007AAB"/>
<path d="M79.455 79.3903L71.8726 61.814L75.8647 49.0805C75.9183 48.9063 75.8246 48.7188 75.6504 48.6652C75.4762 48.6049 75.2887 48.6987 75.2284 48.8728C74.9404 49.69 74.1098 51.311 73.3663 51.1837C73.2122 51.1569 72.5759 50.9024 70.0171 49.2278C68.1952 48.0355 65.9445 47.6604 63.8346 48.1963C61.7313 48.7322 59.9362 50.1321 58.9113 52.0344C56.6473 56.241 55.1938 58.2438 54.2828 59.1882L47.5845 57.8888L46.9012 55.0152C46.8611 54.8343 46.6802 54.7204 46.4994 54.7673C46.3185 54.8075 46.2113 54.9884 46.2515 55.1692L46.9816 58.2505C46.9816 58.2505 46.9816 58.2572 46.9816 58.2639L50.0829 71.3256H41.4019L38.1265 52.8114C37.8518 51.2574 38.3073 49.6967 39.3657 48.5312C40.4307 47.3657 41.9445 46.7763 43.4918 46.9035H43.5253C43.4315 46.6892 43.3511 46.4614 43.2976 46.2337C41.6163 46.1734 40.0087 46.8298 38.8633 48.0824C37.9389 49.0939 37.4298 50.3666 37.3763 51.6995L34.4424 51.9808L33.7123 48.9532C33.7123 46.5954 34.8242 44.7802 36.6863 44.0902C38.5552 43.4003 40.7187 43.9898 42.534 45.604C42.5072 45.316 42.5072 45.028 42.534 44.7467C40.6115 43.2395 38.4011 42.7439 36.4452 43.4673C34.295 44.2577 33.0224 46.3275 33.0357 49.0001C33.0357 49.0269 33.0357 49.0537 33.0424 49.0805L33.7659 52.0813C32.0578 52.4028 30.7315 53.6018 30.2626 55.3099C29.7536 57.1653 30.4033 59.0208 31.9506 60.1528L39.7341 65.8463L40.7723 71.7208C40.7991 71.8815 40.9398 71.9954 41.1005 71.9954H42.2258C42.4402 72.8662 42.5808 73.8642 42.4402 74.802C42.2258 74.7618 42.0048 74.7953 41.8105 74.9092C41.4622 75.1235 40.6718 75.579 39.359 76.2019C37.9657 76.8651 35.5409 77.8028 34.2213 78.2985C33.5917 78.5329 33.1764 79.1425 33.1764 79.8123V80.4889C33.1764 80.9711 33.5716 81.3663 34.0606 81.3663H46.8477C47.0888 81.3663 47.3098 81.2726 47.4773 81.1051C47.6448 80.9376 47.7318 80.7166 47.7318 80.4822C47.7318 80.0535 47.705 79.3769 47.5979 78.5664C47.5577 78.2717 47.5041 77.9904 47.4505 77.7158L50.5451 71.9753C50.6255 71.9619 50.6925 71.9284 50.7461 71.8614C50.8064 71.781 50.8332 71.6739 50.8064 71.5734L50.793 71.5131L51.0743 70.9973C51.2418 71.1447 51.4025 71.2921 51.5365 71.426C51.6303 71.848 51.8111 72.7188 51.9853 74.1188C52.1795 75.6527 52.3135 78.2449 52.3738 79.6516C52.4006 80.3214 52.8493 80.9108 53.4857 81.1185L54.1287 81.3328C54.2158 81.3596 54.3096 81.3797 54.4034 81.3797C54.544 81.3797 54.678 81.3462 54.8053 81.286C55.0129 81.1788 55.1737 80.9979 55.2473 80.7702L59.2395 68.6261C59.3132 68.3984 59.2931 68.1573 59.186 67.9429C59.0788 67.7353 58.8979 67.5812 58.6769 67.5075C58.275 67.3736 57.6185 67.186 56.8148 67.0319C56.0444 66.8846 55.2808 66.831 54.7785 66.8109C54.4837 66.8109 54.189 66.9248 53.9948 67.1592C53.9747 67.1793 53.9613 67.2061 53.9479 67.2329C53.767 67.0855 53.5661 66.9248 53.3584 66.764L55.6626 62.4838H71.3836C71.3836 62.4838 71.3903 62.4838 71.397 62.4838L78.8053 79.665C78.879 79.8324 79.0799 79.9128 79.2474 79.8391C79.4149 79.7654 79.4952 79.5712 79.4216 79.397L79.455 79.3903ZM32.3726 59.6102C30.7918 58.4581 30.5976 56.7232 30.9325 55.4841C31.2741 54.2449 32.3257 52.8583 34.2749 52.6708L37.4097 52.3693C37.4231 52.5569 37.4432 52.7444 37.4767 52.9253L39.5934 64.8885L32.3726 59.6035V59.6102ZM47.7586 58.6055L53.6531 59.7509C53.3718 59.9451 53.1843 59.9987 53.0637 59.9987C50.7461 59.9987 48.6428 59.925 48.0668 59.8982L47.7586 58.5988V58.6055ZM46.2515 71.9954C46.2984 73.4154 46.2984 74.735 46.2515 75.867C46.0774 75.867 45.9099 75.9072 45.7491 75.9943L44.8985 76.4833C44.664 76.6172 44.3827 76.644 44.1348 76.5569L43.5454 76.3627C43.4918 76.3426 43.4449 76.3091 43.4181 76.2555C43.3913 76.2086 43.3913 76.1483 43.4047 76.0948C43.5253 75.7331 43.3846 75.3446 43.0832 75.1168C43.2842 74.0652 43.1569 72.96 42.9359 71.9954H46.2448H46.2515ZM47.0888 80.4889C47.0888 80.5424 47.0687 80.596 47.0285 80.6362C46.9883 80.6764 46.9347 80.7032 46.8745 80.7032H34.0874C33.9668 80.7032 33.873 80.6094 33.873 80.4956V79.819C33.873 79.4305 34.1209 79.0755 34.4893 78.9348C35.8155 78.4325 38.2604 77.488 39.6738 76.8115C40.9532 76.2019 41.7436 75.7531 42.1923 75.4852C42.2258 75.4651 42.266 75.4517 42.3062 75.4517C42.3464 75.4517 42.3799 75.4584 42.4134 75.4785L42.6813 75.6326C42.7684 75.6862 42.8086 75.7866 42.7751 75.8804C42.7014 76.1015 42.7148 76.3426 42.822 76.5502C42.9292 76.7646 43.11 76.9187 43.3378 76.9923L43.9272 77.1866C44.3626 77.3272 44.8382 77.2804 45.2334 77.0526L46.0841 76.5636C46.1711 76.5168 46.2716 76.5034 46.3654 76.5435C46.4592 76.577 46.5261 76.6574 46.5529 76.7445C46.6199 76.9789 46.7003 77.2737 46.774 77.6086L46.9615 78.6669C47.062 79.4305 47.0821 80.0736 47.0888 80.4822V80.4889ZM47.196 76.5703C47.1491 76.4029 47.0486 76.2555 46.928 76.1349C46.9883 74.7886 46.9749 73.315 46.928 71.9954H49.8083L47.2496 76.7445C47.2362 76.6842 47.2161 76.6239 47.2027 76.5703H47.196ZM54.6579 68.8338L54.4636 67.8692C54.4435 67.7688 54.4636 67.675 54.5306 67.5946C54.5909 67.5209 54.6914 67.474 54.7785 67.4807C55.2607 67.5008 55.9842 67.5477 56.7143 67.6884C57.4846 67.8357 58.1075 68.0166 58.496 68.1372C58.5496 68.1573 58.5898 68.1908 58.6166 68.2376C58.6434 68.2912 58.6501 68.3515 58.63 68.4051L54.6378 80.5491C54.6177 80.6027 54.5842 80.6496 54.5306 80.6764C54.4837 80.7032 54.4235 80.7032 54.3699 80.6898L53.7268 80.4755C53.3517 80.3549 53.0972 80.0133 53.0771 79.6114C53.0168 78.1913 52.8828 75.5857 52.6819 74.025C52.501 72.625 52.3269 71.7275 52.2063 71.2184C52.1862 71.138 52.213 71.0576 52.2733 71.004L52.5077 70.7964C52.5479 70.7629 52.5948 70.7428 52.6484 70.7428C52.6886 70.7428 52.7355 70.7562 52.769 70.783C52.9565 70.9237 53.191 70.984 53.4187 70.9505C53.6531 70.917 53.8608 70.7897 54.0015 70.6021L54.3699 70.0998C54.6445 69.7314 54.745 69.2625 54.6512 68.8137L54.6579 68.8338ZM53.8072 68.0032L54.0015 68.9678C54.055 69.229 53.9948 69.5036 53.834 69.718L53.4656 70.2203C53.4321 70.2672 53.3785 70.3007 53.3249 70.3074C53.2713 70.3208 53.2178 70.3074 53.1709 70.2672C52.836 70.0194 52.3671 70.0395 52.059 70.3141L51.8245 70.5218C51.7776 70.5687 51.7374 70.6155 51.6972 70.6691C51.3087 70.3074 50.8466 69.9323 50.3509 69.5572L49.1184 64.3727C51.0341 65.7861 52.7623 67.0989 53.7938 67.9496C53.7938 67.9697 53.7938 67.9831 53.7938 68.0032H53.8072ZM52.856 66.342C51.6236 65.3842 50.1432 64.2856 48.8906 63.368L48.6763 62.4838C48.7232 62.4838 48.7634 62.4838 48.817 62.4838H54.9392L52.856 66.342ZM71.1759 61.814H48.5088C48.3079 61.0838 48.2208 60.5748 48.2208 60.5748C48.2208 60.5748 50.3375 60.6686 53.0704 60.6686C53.5527 60.6686 55.033 60.6686 59.5075 52.3493C60.4586 50.5809 62.0528 49.335 64.002 48.8393C65.9311 48.3504 67.9875 48.6987 69.6487 49.7838C72.2945 51.5187 72.9711 51.7866 73.2457 51.8402C73.6811 51.9206 74.0763 51.7464 74.4179 51.4584L71.1692 61.814H71.1759Z" fill="#292929"/>
</g>
<defs>
<clipPath id="clip0_1_3637">
<rect width="81.0496" height="81.0496" fill="white" transform="translate(0.810059 0.33017)"/>
</clipPath>
</defs>
</svg>
