<svg width="427" height="210" viewBox="0 0 427 210" fill="none" xmlns="http://www.w3.org/2000/svg">
<path d="M0.00189209 172.13L16.8919 50.4098C17.4419 46.4598 19.2919 43.0998 22.4419 40.3298C25.5919 37.5598 29.1619 36.0498 33.1519 35.7798H48.1719L90.5019 129.44L103.502 35.7798H131.162L112.242 172.12H83.3919L40.6619 78.4598L27.6619 172.12H0.00189209V172.13Z" fill="#002F60"/>
<path d="M258.102 130.11L286.282 130.15C285.612 137.91 287.492 143.35 291.892 146.46C296.442 150.09 303.422 151.91 312.812 151.92C321.122 151.93 327.752 150.53 332.682 147.68C337.612 144.84 340.682 140.71 341.902 135.28C343.752 127.01 333.182 120.27 310.182 115.06L309.462 114.67L306.412 113.89C293.362 111.02 284.902 108.04 281.032 104.93C276.302 102.08 273.472 97.9298 272.542 92.4998C270.902 87.8398 270.892 81.8998 272.512 74.6498C275.342 61.9798 282.132 52.0298 292.882 44.7998C303.562 37.8298 317.622 34.3598 335.072 34.3898C351.432 34.4198 363.242 38.0598 370.482 45.3098C377.802 53.3398 380.292 63.8198 377.942 76.7498L361.842 76.7299C355.662 76.7199 351.842 73.9998 350.382 68.5598C349.612 65.9798 348.232 63.7698 346.222 61.9598C342.142 58.5898 335.942 56.8998 327.622 56.8898C319.572 56.8798 313.482 58.2898 309.362 61.1298C304.702 63.9698 301.792 67.9698 300.632 73.1398C299.072 80.1198 305.692 85.3098 320.512 88.6898C324.782 89.9898 327.962 90.7698 330.052 91.0298C334.532 92.5898 338.482 93.8199 341.912 94.7299C345.332 95.6399 348.052 96.3598 350.092 96.8798C353.502 98.4398 356.912 99.9898 360.322 101.55C364.992 104.66 368.252 108.68 370.112 113.59C371.852 119.02 371.992 124.98 370.552 131.44C367.432 145.4 360.172 156.26 348.772 164C337.492 171.23 322.992 174.82 305.282 174.8C287.032 174.77 274.182 171.01 266.742 163.49C258.492 155.98 255.612 144.85 258.102 130.11Z" fill="#002F60"/>
<path d="M0 201.783V179.215C0 178.482 0.244249 177.871 0.732748 177.383C1.2701 176.845 1.90514 176.577 2.63789 176.577H12.2369C14.9725 176.577 16.9998 177.163 18.3187 178.335C19.6865 179.557 20.3704 181.34 20.3704 183.684C20.3704 185.248 20.0284 186.542 19.3445 187.568C18.7584 188.545 17.8302 189.253 16.5601 189.693C17.6837 190.084 18.4653 190.67 18.9049 191.451C19.3445 192.184 19.6132 193.43 19.7109 195.188L19.8575 198.193C19.8575 198.486 19.8575 198.803 19.8575 199.145C19.8575 199.487 19.8819 199.805 19.9307 200.098C20.0773 200.977 20.3704 201.539 20.81 201.783H15.0946C14.8504 201.295 14.7038 200.782 14.655 200.244C14.5573 199.463 14.5084 198.925 14.5084 198.632L14.4351 195.921C14.3374 194.456 14.0443 193.405 13.5558 192.77C13.0185 192.233 12.0659 191.964 10.6981 191.964H5.20251V201.783H0ZM5.20251 187.568H11.2843C12.6033 187.568 13.5803 187.299 14.2153 186.762C14.8504 186.225 15.1679 185.394 15.1679 184.271C15.1679 183.147 14.8504 182.317 14.2153 181.779C13.6291 181.193 12.7498 180.9 11.5774 180.9H5.20251V187.568ZM24.254 200.025C23.2281 199.145 22.4954 197.973 22.0557 196.507C21.6161 194.993 21.3962 193.43 21.3962 191.818C21.3962 190.499 21.5672 189.18 21.9092 187.861C22.3 186.542 22.8862 185.443 23.6678 184.564C24.9379 183.098 26.5743 182.243 28.5772 181.999C30.58 181.706 32.3875 181.852 33.9995 182.439C35.8558 183.171 37.2236 184.441 38.1029 186.249C38.9333 187.861 39.3486 189.742 39.3486 191.891C39.3486 193.454 39.1776 194.798 38.8356 195.921C38.4937 197.045 38.054 197.997 37.5167 198.779C36.3443 200.391 34.8544 201.392 33.0469 201.783C31.4349 202.223 29.7984 202.247 28.1375 201.856C26.5255 201.515 25.231 200.904 24.254 200.025ZM27.7712 187.128C26.7453 188.252 26.2812 189.937 26.3789 192.184C26.4766 194.382 26.8919 195.921 27.6246 196.801C27.9177 197.191 28.4306 197.533 29.1634 197.826C29.8961 198.071 30.6289 198.095 31.3616 197.9C32.1432 197.655 32.8271 197.094 33.4133 196.214C33.9995 195.335 34.317 193.918 34.3659 191.964C34.3659 190.206 34.0728 188.887 33.4866 188.008C32.9492 187.128 32.3142 186.566 31.5814 186.322C30.8487 186.078 30.1159 186.078 29.3832 186.322C28.6504 186.518 28.1131 186.786 27.7712 187.128ZM42.5727 200.025C41.5468 199.145 40.8141 197.973 40.3744 196.507C39.9348 194.993 39.7149 193.43 39.7149 191.818C39.7149 190.499 39.8859 189.18 40.2279 187.861C40.6187 186.542 41.2049 185.443 41.9865 184.564C43.2566 183.098 44.893 182.243 46.8959 181.999C48.8987 181.706 50.7062 181.852 52.3182 182.439C54.1745 183.171 55.5423 184.441 56.4216 186.249C57.252 187.861 57.6673 189.742 57.6673 191.891C57.6673 193.454 57.4963 194.798 57.1543 195.921C56.8124 197.045 56.3728 197.997 55.8354 198.779C54.663 200.391 53.1731 201.392 51.3656 201.783C49.7536 202.223 48.1171 202.247 46.4562 201.856C44.8442 201.515 43.5497 200.904 42.5727 200.025ZM46.0899 187.128C45.064 188.252 44.5999 189.937 44.6976 192.184C44.7953 194.382 45.2106 195.921 45.9433 196.801C46.2364 197.191 46.7493 197.533 47.4821 197.826C48.2148 198.071 48.9476 198.095 49.6803 197.9C50.4619 197.655 51.1458 197.094 51.732 196.214C52.3182 195.335 52.6357 193.918 52.6846 191.964C52.6846 190.206 52.3915 188.887 51.8053 188.008C51.2679 187.128 50.6329 186.566 49.9001 186.322C49.1674 186.078 48.4346 186.078 47.7019 186.322C46.9692 186.518 46.4318 186.786 46.0899 187.128ZM58.4733 201.783V181.706C58.4733 179.947 58.9374 178.628 59.8655 177.749C60.7448 176.919 62.1859 176.503 64.1887 176.503C64.6772 176.503 65.068 176.528 65.3611 176.577C65.8985 176.577 66.3137 176.601 66.6068 176.65V180.68H65.2879C64.604 180.68 64.1155 180.778 63.8224 180.973C63.5781 181.169 63.456 181.559 63.456 182.146V183.465H66.6068V184.564C66.6068 185.296 66.3625 185.907 65.874 186.395C65.3856 186.835 64.8238 187.055 64.1887 187.055H63.456V201.783H58.4733ZM75.6196 201.783C74.0076 201.881 72.249 201.856 70.3438 201.71C68.4875 201.563 67.5594 200.367 67.5594 198.119V176.577H70.1973C70.8323 176.577 71.3941 176.821 71.8826 177.309C72.3711 177.798 72.6153 178.384 72.6153 179.068V182.365H75.6196V183.391C75.6196 184.124 75.3754 184.735 74.8869 185.223C74.3984 185.663 73.8122 185.883 73.1283 185.883H72.6153V196.727C72.6153 197.558 73.1038 197.973 74.0808 197.973H75.6196V201.783ZM78.4773 200.025C77.4515 199.145 76.7187 197.973 76.2791 196.507C75.8394 194.993 75.6196 193.43 75.6196 191.818C75.6196 190.499 75.7906 189.18 76.1325 187.861C76.5233 186.542 77.1095 185.443 77.8911 184.564C79.1612 183.098 80.7977 182.243 82.8005 181.999C84.8034 181.706 86.6108 181.852 88.2229 182.439C90.0792 183.171 91.447 184.441 92.3263 186.249C93.1567 187.861 93.5719 189.742 93.5719 191.891C93.5719 193.454 93.401 194.798 93.059 195.921C92.7171 197.045 92.2774 197.997 91.7401 198.779C90.5677 200.391 89.0777 201.392 87.2703 201.783C85.6582 202.223 84.0218 202.247 82.3609 201.856C80.7488 201.515 79.4543 200.904 78.4773 200.025ZM81.9945 187.128C80.9687 188.252 80.5046 189.937 80.6023 192.184C80.7 194.382 81.1152 195.921 81.848 196.801C82.1411 197.191 82.654 197.533 83.3867 197.826C84.1195 198.071 84.8522 198.095 85.585 197.9C86.3666 197.655 87.0505 197.094 87.6367 196.214C88.2229 195.335 88.5404 193.918 88.5892 191.964C88.5892 190.206 88.2961 188.887 87.7099 188.008C87.1726 187.128 86.5375 186.566 85.8048 186.322C85.0721 186.078 84.3393 186.078 83.6066 186.322C82.8738 186.518 82.3365 186.786 81.9945 187.128ZM99.3606 206.473C99.3606 207.157 99.1164 207.743 98.6279 208.231C98.1394 208.72 97.5532 208.964 96.8693 208.964H94.3779V190.719C94.3779 187.299 95.3794 184.979 97.3822 183.758C99.3851 182.488 101.559 181.852 103.904 181.852C105.125 181.852 106.346 182.097 107.567 182.585C108.838 183.025 109.839 183.684 110.572 184.564C112.037 186.469 112.77 188.911 112.77 191.891C112.77 194.969 112.037 197.46 110.572 199.365C109.106 201.221 107.225 202.15 104.93 202.15C103.708 202.15 102.634 201.93 101.705 201.49C100.728 201.002 99.9468 200.244 99.3606 199.219V206.473ZM107.714 192.111C107.714 190.206 107.348 188.74 106.615 187.714C105.882 186.689 104.832 186.176 103.464 186.176C102.145 186.176 101.119 186.689 100.386 187.714C99.7026 188.643 99.3606 190.108 99.3606 192.111C99.3606 193.967 99.727 195.359 100.46 196.288C101.193 197.313 102.243 197.826 103.611 197.826C104.881 197.826 105.882 197.313 106.615 196.288C107.348 195.262 107.714 193.87 107.714 192.111ZM122.076 193.943H127.205C127.4 195.408 127.962 196.434 128.89 197.02C129.867 197.704 131.211 198.046 132.92 198.046C134.435 198.046 135.583 197.778 136.364 197.24C137.146 196.703 137.537 195.921 137.537 194.895C137.537 193.332 135.339 192.062 130.942 191.085L130.796 191.012C130.796 191.012 130.6 190.963 130.209 190.865C127.718 190.328 126.057 189.766 125.227 189.18C124.25 188.643 123.566 187.861 123.175 186.835C122.686 185.956 122.442 184.832 122.442 183.465C122.442 181.071 123.273 179.19 124.934 177.822C126.594 176.503 129.013 175.844 132.188 175.844C135.168 175.844 137.464 176.528 139.076 177.896C140.736 179.41 141.616 181.388 141.713 183.831H138.782C137.659 183.831 136.853 183.318 136.364 182.292C136.12 181.804 135.778 181.388 135.339 181.046C134.459 180.411 133.262 180.094 131.748 180.094C130.283 180.094 129.232 180.363 128.597 180.9C127.865 181.437 127.498 182.194 127.498 183.171C127.498 184.49 128.915 185.467 131.748 186.102C132.579 186.347 133.189 186.493 133.58 186.542C134.459 186.835 135.216 187.079 135.851 187.275C136.535 187.421 137.073 187.543 137.464 187.641C138.147 187.934 138.831 188.227 139.515 188.52C140.492 189.107 141.249 189.864 141.787 190.792C142.324 191.818 142.593 192.941 142.593 194.163C142.593 196.801 141.713 198.852 139.955 200.318C138.196 201.686 135.705 202.369 132.481 202.369C129.159 202.369 126.668 201.661 125.007 200.244C123.199 198.828 122.222 196.727 122.076 193.943ZM146.037 200.025C145.011 199.145 144.278 197.973 143.838 196.507C143.399 194.993 143.179 193.43 143.179 191.818C143.179 190.499 143.35 189.18 143.692 187.861C144.083 186.542 144.669 185.443 145.45 184.564C146.721 183.098 148.357 182.243 150.36 181.999C152.363 181.706 154.17 181.852 155.782 182.439C157.639 183.171 159.006 184.441 159.886 186.249C160.716 187.861 161.131 189.742 161.131 191.891C161.131 193.454 160.96 194.798 160.618 195.921C160.276 197.045 159.837 197.997 159.299 198.779C158.127 200.391 156.637 201.392 154.83 201.783C153.218 202.223 151.581 202.247 149.92 201.856C148.308 201.515 147.014 200.904 146.037 200.025ZM149.554 187.128C148.528 188.252 148.064 189.937 148.162 192.184C148.259 194.382 148.675 195.921 149.407 196.801C149.7 197.191 150.213 197.533 150.946 197.826C151.679 198.071 152.412 198.095 153.144 197.9C153.926 197.655 154.61 197.094 155.196 196.214C155.782 195.335 156.1 193.918 156.149 191.964C156.149 190.206 155.856 188.887 155.269 188.008C154.732 187.128 154.097 186.566 153.364 186.322C152.631 186.078 151.899 186.078 151.166 186.322C150.433 186.518 149.896 186.786 149.554 187.128ZM162.157 176.577H164.795C165.479 176.577 166.065 176.821 166.554 177.309C167.042 177.749 167.286 178.311 167.286 178.995V201.783H162.157V176.577ZM179.45 191.964C178.766 192.306 177.814 192.624 176.592 192.917C175.469 193.161 174.907 193.283 174.907 193.283C174.028 193.528 173.393 193.845 173.002 194.236C172.66 194.773 172.489 195.311 172.489 195.848C172.489 196.581 172.709 197.167 173.148 197.607C173.588 197.997 174.223 198.193 175.054 198.193C176.421 198.193 177.496 197.802 178.278 197.02C179.059 196.239 179.45 195.164 179.45 193.796V191.964ZM180.622 200.977C179.597 201.515 178.497 201.832 177.325 201.93C176.201 202.076 175.2 202.15 174.321 202.15C172.562 202.15 171.023 201.686 169.704 200.757C168.386 199.78 167.726 198.193 167.726 195.994C167.726 193.943 168.312 192.477 169.485 191.598C170.706 190.719 172.245 190.133 174.101 189.839C174.345 189.839 174.638 189.815 174.98 189.766C175.322 189.668 175.713 189.595 176.153 189.546C178.302 189.253 179.377 188.618 179.377 187.641C179.377 186.908 178.986 186.444 178.204 186.249C177.472 186.005 176.788 185.883 176.153 185.883C175.469 185.883 174.858 185.98 174.321 186.176C173.783 186.371 173.393 186.737 173.148 187.275H168.239C168.434 185.76 169.118 184.515 170.291 183.538C171.61 182.414 173.49 181.852 175.933 181.852C178.668 181.852 180.72 182.317 182.088 183.245C183.505 184.222 184.213 185.589 184.213 187.348V194.016C184.213 195.97 183.846 197.509 183.114 198.632C182.43 199.707 181.599 200.489 180.622 200.977ZM184.946 201.783V192.331C184.946 190.426 185.214 188.838 185.752 187.568C186.338 186.249 187.119 185.199 188.096 184.417C189.025 183.684 190.099 183.147 191.321 182.805C192.591 182.463 193.885 182.292 195.204 182.292C195.302 182.292 195.424 182.292 195.57 182.292C195.717 182.292 195.839 182.292 195.937 182.292V187.495H194.252C192.835 187.495 191.785 187.837 191.101 188.52C190.417 189.204 190.075 190.279 190.075 191.745V201.783H184.946ZM204.876 193.943H210.006C210.201 195.408 210.763 196.434 211.691 197.02C212.668 197.704 214.011 198.046 215.721 198.046C217.235 198.046 218.383 197.778 219.165 197.24C219.947 196.703 220.337 195.921 220.337 194.895C220.337 193.332 218.139 192.062 213.743 191.085L213.596 191.012C213.596 191.012 213.401 190.963 213.01 190.865C210.519 190.328 208.858 189.766 208.027 189.18C207.05 188.643 206.366 187.861 205.975 186.835C205.487 185.956 205.243 184.832 205.243 183.465C205.243 181.071 206.073 179.19 207.734 177.822C209.395 176.503 211.813 175.844 214.988 175.844C217.968 175.844 220.264 176.528 221.876 177.896C223.537 179.41 224.416 181.388 224.514 183.831H221.583C220.459 183.831 219.653 183.318 219.165 182.292C218.921 181.804 218.579 181.388 218.139 181.046C217.26 180.411 216.063 180.094 214.549 180.094C213.083 180.094 212.033 180.363 211.398 180.9C210.665 181.437 210.299 182.194 210.299 183.171C210.299 184.49 211.715 185.467 214.549 186.102C215.379 186.347 215.99 186.493 216.381 186.542C217.26 186.835 218.017 187.079 218.652 187.275C219.336 187.421 219.873 187.543 220.264 187.641C220.948 187.934 221.632 188.227 222.316 188.52C223.293 189.107 224.05 189.864 224.587 190.792C225.125 191.818 225.393 192.941 225.393 194.163C225.393 196.801 224.514 198.852 222.755 200.318C220.997 201.686 218.505 202.369 215.281 202.369C211.96 202.369 209.468 201.661 207.807 200.244C206 198.828 205.023 196.727 204.876 193.943ZM228.837 200.025C227.811 199.145 227.079 197.973 226.639 196.507C226.199 194.993 225.979 193.43 225.979 191.818C225.979 190.499 226.15 189.18 226.492 187.861C226.883 186.542 227.469 185.443 228.251 184.564C229.521 183.098 231.158 182.243 233.16 181.999C235.163 181.706 236.971 181.852 238.583 182.439C240.439 183.171 241.807 184.441 242.686 186.249C243.517 187.861 243.932 189.742 243.932 191.891C243.932 193.454 243.761 194.798 243.419 195.921C243.077 197.045 242.637 197.997 242.1 198.779C240.928 200.391 239.438 201.392 237.63 201.783C236.018 202.223 234.382 202.247 232.721 201.856C231.109 201.515 229.814 200.904 228.837 200.025ZM232.354 187.128C231.329 188.252 230.864 189.937 230.962 192.184C231.06 194.382 231.475 195.921 232.208 196.801C232.501 197.191 233.014 197.533 233.747 197.826C234.479 198.071 235.212 198.095 235.945 197.9C236.726 197.655 237.41 197.094 237.997 196.214C238.583 195.335 238.9 193.918 238.949 191.964C238.949 190.206 238.656 188.887 238.07 188.008C237.532 187.128 236.897 186.566 236.165 186.322C235.432 186.078 234.699 186.078 233.966 186.322C233.234 186.518 232.696 186.786 232.354 187.128ZM244.958 176.577H247.596C248.279 176.577 248.866 176.821 249.354 177.309C249.843 177.749 250.087 178.311 250.087 178.995V201.783H244.958V176.577ZM267.966 182.292V193.723C267.966 197.191 267.062 199.463 265.255 200.538C263.447 201.612 261.469 202.15 259.32 202.15C257.219 202.052 255.289 201.466 253.531 200.391C251.821 199.316 250.966 197.094 250.966 193.723V182.292H256.095V194.749C256.095 195.921 256.437 196.776 257.121 197.313C257.805 197.851 258.587 198.119 259.466 198.119C260.345 198.119 261.127 197.851 261.811 197.313C262.544 196.776 262.91 195.921 262.91 194.749V184.783C262.91 184.1 263.13 183.513 263.569 183.025C264.058 182.536 264.669 182.292 265.401 182.292H267.966ZM277.418 201.783C275.806 201.881 274.048 201.856 272.143 201.71C270.286 201.563 269.358 200.367 269.358 198.119V176.577H271.996C272.631 176.577 273.193 176.821 273.681 177.309C274.17 177.798 274.414 178.384 274.414 179.068V182.365H277.418V183.391C277.418 184.124 277.174 184.735 276.686 185.223C276.197 185.663 275.611 185.883 274.927 185.883H274.414V196.727C274.414 197.558 274.903 197.973 275.88 197.973H277.418V201.783ZM278.298 182.292H280.936C281.62 182.292 282.206 182.536 282.694 183.025C283.183 183.513 283.427 184.1 283.427 184.783V201.783H278.298V182.292ZM278.298 176.577H280.936C281.62 176.577 282.206 176.821 282.694 177.309C283.183 177.798 283.427 178.384 283.427 179.068V180.607H278.298V176.577ZM286.065 200.025C285.039 199.145 284.306 197.973 283.867 196.507C283.427 194.993 283.207 193.43 283.207 191.818C283.207 190.499 283.378 189.18 283.72 187.861C284.111 186.542 284.697 185.443 285.479 184.564C286.749 183.098 288.385 182.243 290.388 181.999C292.391 181.706 294.198 181.852 295.81 182.439C297.667 183.171 299.034 184.441 299.914 186.249C300.744 187.861 301.159 189.742 301.159 191.891C301.159 193.454 300.988 194.798 300.647 195.921C300.305 197.045 299.865 197.997 299.328 198.779C298.155 200.391 296.665 201.392 294.858 201.783C293.246 202.223 291.609 202.247 289.948 201.856C288.336 201.515 287.042 200.904 286.065 200.025ZM289.582 187.128C288.556 188.252 288.092 189.937 288.19 192.184C288.287 194.382 288.703 195.921 289.435 196.801C289.729 197.191 290.241 197.533 290.974 197.826C291.707 198.071 292.44 198.095 293.172 197.9C293.954 197.655 294.638 197.094 295.224 196.214C295.81 195.335 296.128 193.918 296.177 191.964C296.177 190.206 295.884 188.887 295.297 188.008C294.76 187.128 294.125 186.566 293.392 186.322C292.66 186.078 291.927 186.078 291.194 186.322C290.461 186.518 289.924 186.786 289.582 187.128ZM318.965 201.783H316.401C315.668 201.783 315.057 201.563 314.569 201.124C314.129 200.635 313.909 200.025 313.909 199.292V189.326C313.909 188.154 313.543 187.299 312.81 186.762C312.126 186.225 311.345 185.956 310.465 185.956C309.586 185.956 308.804 186.225 308.121 186.762C307.437 187.299 307.095 188.154 307.095 189.326V201.783H301.965V190.352C301.965 187.031 302.82 184.808 304.53 183.684C306.289 182.561 308.218 181.95 310.319 181.852C312.468 181.852 314.447 182.414 316.254 183.538C318.062 184.661 318.965 186.933 318.965 190.352V201.783ZM319.332 195.335H324.314C324.363 196.312 324.73 197.045 325.413 197.533C326.146 198.022 327.123 198.266 328.344 198.266C329.224 198.266 329.981 198.095 330.616 197.753C331.202 197.411 331.495 196.947 331.495 196.361C331.495 195.482 330.469 194.822 328.418 194.382C327.538 194.236 326.879 194.089 326.439 193.943C323.85 193.308 322.116 192.551 321.237 191.671C320.26 190.792 319.771 189.62 319.771 188.154C319.771 186.298 320.48 184.759 321.896 183.538C323.362 182.414 325.267 181.852 327.612 181.852C330.152 181.852 332.179 182.414 333.693 183.538C335.11 184.759 335.867 186.347 335.965 188.301H332.814C331.886 188.301 331.178 187.885 330.689 187.055C330.494 186.86 330.298 186.664 330.103 186.469C329.517 186.029 328.711 185.809 327.685 185.809C326.708 185.809 325.975 185.956 325.487 186.249C325.047 186.542 324.827 186.982 324.827 187.568C324.827 188.349 326.097 189.009 328.637 189.546C328.931 189.644 329.175 189.717 329.37 189.766C329.614 189.815 329.834 189.839 330.03 189.839C332.521 190.474 334.255 191.207 335.232 192.038C336.16 192.917 336.624 194.089 336.624 195.555C336.624 197.704 335.843 199.365 334.28 200.538C332.814 201.612 330.616 202.15 327.685 202.15C324.9 202.15 322.824 201.588 321.457 200.464C320.04 199.341 319.332 197.704 319.332 195.555V195.335Z" fill="#002F60"/>
<path d="M386.252 25.1998V4.52983H378.802V2.69983C378.802 1.96983 379.062 1.34983 379.562 0.829834C380.072 0.319834 380.702 0.0698242 381.432 0.0698242H398.812V4.52983H391.432V25.1998H386.252Z" fill="#002F60"/>
<path d="M401.632 25.2V2.70999C401.632 1.97999 401.892 1.36 402.392 0.839996C402.902 0.329996 403.532 0.05 404.262 0H409.302L414.262 19.21L419.232 0H426.902V25.2H422.082V4.89999L416.972 25.2H411.642L406.452 4.89999V25.2H401.632Z" fill="#002F60"/>
<path d="M234.212 45.0601L236.732 47.0201L252.852 44.9801L252.972 45.9601L253.432 35.8301L233.622 38.5401L234.612 38.6001L234.212 45.0601Z" fill="#002F60"/>
<path d="M155.682 74.2199L153.852 72.4399L134.972 74.5599L134.862 73.5799L133.172 85.7899L155.552 83.5899L154.572 83.4699L155.682 74.2199Z" fill="#002F60"/>
<path d="M231.352 59.4002L231.812 51.9502L229.292 49.9502L197.622 53.9602L195.062 56.4002L194.392 63.7402L196.582 65.6702L228.502 62.0902L231.352 59.4002Z" fill="#002F60"/>
<path d="M192.382 63.9701L193.062 56.6501L190.932 54.8101L161.592 58.5201L159.302 60.7301L158.432 67.9701L160.282 69.7301L189.812 66.42L192.382 63.9701Z" fill="#002F60"/>
<path d="M191.792 70.3702L189.622 68.4302L160.042 71.7502L157.702 74.0002L156.552 83.4902L191.892 80.0202L190.912 79.9302L191.792 70.3702Z" fill="#002F60"/>
<path d="M232.932 65.9901L232.312 76.0501L251.702 74.1501L252.272 61.4102L235.832 63.2602L232.932 65.9901Z" fill="#002F60"/>
<path d="M195.642 50.1402L197.772 51.9502L229.452 47.9402L232.222 45.3202L232.622 38.6802L195.232 43.7902L196.222 43.8802L195.642 50.1402Z" fill="#002F60"/>
<path d="M156.412 68.2001L157.282 60.9801L155.482 59.29L136.762 61.66L136.632 60.68L135.002 72.5701L154.102 70.43L156.412 68.2001Z" fill="#002F60"/>
<path d="M230.932 66.1999L228.372 64.0898L196.402 67.6698L193.792 70.1599L192.892 79.9198L231.312 76.1498L230.332 76.0898L230.932 66.1999Z" fill="#002F60"/>
<path d="M236.642 49.02L233.812 51.7L233.352 59.16L235.942 61.26L252.212 59.43L252.322 60.41L252.932 46.96L236.642 49.02Z" fill="#002F60"/>
<path d="M160.012 54.8502L161.802 56.5002L191.152 52.7902L193.632 50.4002L194.232 43.9302L159.762 48.6402L160.742 48.7602L160.012 54.8502Z" fill="#002F60"/>
<path d="M157.992 55.1103L158.752 48.7803L137.882 51.6303L136.772 59.6703L155.762 57.2703L157.992 55.1103Z" fill="#002F60"/>
<path d="M151.412 109.67L152.332 102.01L150.412 100.02L131.212 101.58L131.132 100.61L129.382 113.34L148.912 112.05L151.412 109.67Z" fill="#002F60"/>
<path d="M188.412 107.02L189.132 99.2303L186.852 97.0503L156.822 99.4903L154.342 101.86L153.422 109.53L155.412 111.62L185.632 109.63L188.412 107.02Z" fill="#002F60"/>
<path d="M231.092 96.0401L230.602 104L233.392 106.49L250.172 105.39L250.242 106.37L250.902 91.8301L234.142 93.2001L231.092 96.0401Z" fill="#002F60"/>
<path d="M191.752 92.3202L194.062 94.4802L226.532 91.8402L229.542 89.0202L229.972 81.9502L191.382 85.5202L192.372 85.6102L191.752 92.3202Z" fill="#002F60"/>
<path d="M153.102 95.69L153.902 88.98L132.462 90.96L131.272 99.6L150.662 98.02L153.102 95.69Z" fill="#002F60"/>
<path d="M230.152 111.38L229.492 122.16L249.572 121.14L250.192 107.36L233.282 108.48L230.152 111.38Z" fill="#002F60"/>
<path d="M228.162 111.51L225.402 109L192.592 111.15L189.772 113.81L188.812 124.23L228.502 122.21L227.512 122.15L228.162 111.51Z" fill="#002F60"/>
<path d="M155.102 95.5099L157.052 97.4999L187.042 95.0499L189.752 92.4899L190.382 85.6099L154.912 88.8899L155.892 88.9999L155.102 95.5099Z" fill="#002F60"/>
<path d="M150.632 116.15L148.662 114.05L129.302 115.32L129.242 114.34L127.442 127.36L150.422 126.19L149.442 126.07L150.632 116.15Z" fill="#002F60"/>
<path d="M187.782 113.93L185.442 111.63L155.182 113.62L152.632 116.03L151.422 126.14L187.822 124.28L186.832 124.19L187.782 113.93Z" fill="#002F60"/>
<path d="M226.402 93.8301L193.882 96.4801L191.132 99.0801L190.412 106.88L192.772 109.16L225.532 107.01L228.612 104.14L229.102 96.2001L226.402 93.8301Z" fill="#002F60"/>
<path d="M230.972 81.8602L231.962 81.9202L231.532 88.8602L234.262 91.2102L250.862 89.8502L250.942 90.8402L251.432 79.9702L230.972 81.8602Z" fill="#002F60"/>
<path d="M145.092 162.1L142.992 159.61L123.112 159.9L123.092 158.92L121.292 171.98L144.182 172L143.912 171.96L145.092 162.1Z" fill="#002F60"/>
<path d="M147.742 140.11L148.712 132.14L126.652 133.11L125.262 143.23L145.112 142.6L147.742 140.11Z" fill="#002F60"/>
<path d="M145.942 155.08L146.922 146.95L144.862 144.58L125.152 145.21L125.122 144.23L123.232 157.92L143.232 157.63L145.942 155.08Z" fill="#002F60"/>
<path d="M222.142 158.46L188.402 158.95L185.352 161.77L184.412 172.02L224.452 172.05L225.102 161.44L222.142 158.46Z" fill="#002F60"/>
<path d="M228.092 144.89L227.572 153.39L230.582 156.36L247.932 156.11L247.952 157.11L248.662 141.32L231.402 141.86L228.092 144.89Z" fill="#002F60"/>
<path d="M184.062 154.29L184.822 145.99L182.372 143.4L151.602 144.37L148.912 146.9L147.932 155.04L150.072 157.53L181.052 157.08L184.062 154.29Z" fill="#002F60"/>
<path d="M149.742 140.04L151.832 142.39L182.562 141.42L185.492 138.69L186.252 130.47L149.212 132.11L150.672 132.29L149.742 140.04Z" fill="#002F60"/>
<path d="M223.212 142.12L189.792 143.17L186.812 145.94L186.042 154.25L188.582 156.97L222.262 156.48L225.592 153.43L226.112 144.94L223.212 142.12Z" fill="#002F60"/>
<path d="M187.482 138.62L189.962 141.19L223.342 140.14L226.592 137.15L227.112 128.67L186.622 130.46L188.222 130.6L187.482 138.62Z" fill="#002F60"/>
<path d="M227.272 128.66L229.082 128.77L228.572 137.07L231.512 139.88L248.672 139.34L248.702 140.32L249.282 127.68L227.272 128.66Z" fill="#002F60"/>
<path d="M227.082 161.43L226.432 172.05L247.272 172.06L247.902 158.08L230.462 158.34L227.082 161.43Z" fill="#002F60"/>
<path d="M183.362 161.79L180.862 159.06L149.842 159.51L147.082 162.09L145.892 172L182.442 172.02H182.422L183.362 161.79Z" fill="#002F60"/>
</svg>
