<?xml version="1.0" encoding="UTF-8"?>
<svg xmlns="http://www.w3.org/2000/svg" version="1.1" viewBox="0 0 255.12 155.91">
  <defs>
    <style>
      .cls-1 {
        fill: #003062;
      }
    </style>
  </defs>
  <!-- Generator: Adobe Illustrator 28.6.0, SVG Export Plug-In . SVG Version: 1.2.0 Build 709)  -->
  <g>
    <g id="Layer_4">
      <path class="cls-1" d="M26.8,102.94l8.94-64.46c.29-2.09,1.27-3.87,2.94-5.34,1.67-1.46,3.56-2.27,5.67-2.41h7.95l22.42,49.6,6.88-49.6h14.65l-10.02,72.2h-15.28l-22.63-49.6-6.88,49.6h-14.65Z"/>
      <path class="cls-1" d="M163.47,80.69l14.92.02c-.35,4.11.64,6.99,2.97,8.63,2.41,1.92,6.1,2.89,11.08,2.89,4.4,0,7.91-.74,10.52-2.24,2.61-1.5,4.24-3.69,4.88-6.57.98-4.38-4.62-7.95-16.8-10.71l-.38-.21-1.61-.41c-6.91-1.52-11.39-3.1-13.44-4.75-2.51-1.51-4-3.7-4.5-6.58-.87-2.47-.88-5.62-.02-9.45,1.5-6.71,5.09-11.98,10.78-15.8,5.66-3.69,13.1-5.53,22.34-5.51,8.67.01,14.92,1.94,18.75,5.78,3.88,4.25,5.2,9.8,3.95,16.65h-8.53c-3.27-.02-5.29-1.46-6.07-4.34-.41-1.37-1.14-2.53-2.2-3.5-2.16-1.78-5.44-2.68-9.85-2.69-4.26,0-7.49.74-9.67,2.25-2.47,1.5-4.01,3.62-4.62,6.36-.83,3.7,2.68,6.44,10.53,8.23,2.26.69,3.94,1.1,5.05,1.24,2.37.82,4.47,1.48,6.28,1.96,1.81.48,3.25.86,4.33,1.14,1.8.82,3.61,1.65,5.42,2.47,2.47,1.65,4.2,3.78,5.18,6.38.92,2.88,1,6.03.23,9.45-1.65,7.39-5.5,13.14-11.53,17.24-5.97,3.83-13.65,5.73-23.03,5.72-9.66-.01-16.47-2.01-20.41-5.99-4.37-3.98-5.89-9.87-4.58-17.68Z"/>
      <g>
        <path class="cls-1" d="M26.8,121.56v-11.95c0-.39.14-.72.41-.99s.6-.41.99-.41h5.08c1.45,0,2.52.31,3.22.93.72.65,1.09,1.59,1.09,2.83,0,.83-.18,1.51-.54,2.06-.31.52-.8.89-1.47,1.12.59.21,1.01.52,1.24.93.23.39.38,1.05.43,1.98l.08,1.59v.5c0,.18.01.35.04.5.08.47.23.76.47.89h-3.03c-.13-.26-.21-.53-.23-.81-.05-.41-.08-.7-.08-.85l-.04-1.44c-.05-.78-.21-1.33-.47-1.67-.28-.28-.79-.43-1.51-.43h-2.91v5.2h-2.75ZM29.55,114.03h3.22c.7,0,1.22-.14,1.55-.43.34-.28.5-.72.5-1.32s-.17-1.03-.5-1.32c-.31-.31-.78-.47-1.4-.47h-3.38v3.53Z"/>
        <path class="cls-1" d="M40.63,120.63c-.54-.46-.93-1.09-1.16-1.88-.23-.79-.35-1.61-.35-2.46,0-.7.1-1.4.29-2.09.19-.7.5-1.28.91-1.75.67-.78,1.54-1.24,2.6-1.38,1.06-.14,2.02-.06,2.87.25.98.39,1.71,1.06,2.17,2.02.44.85.66,1.85.66,2.99,0,.83-.09,1.54-.27,2.13-.18.6-.41,1.1-.7,1.51-.62.85-1.41,1.38-2.37,1.59-.85.23-1.71.25-2.58.06-.87-.19-1.56-.52-2.08-.99ZM42.5,113.8c-.54.59-.79,1.48-.74,2.66.05,1.18.27,2,.66,2.46.16.21.43.38.81.52.39.14.78.16,1.18.04.4-.12.76-.41,1.07-.87.31-.46.48-1.21.5-2.25,0-.93-.15-1.63-.45-2.1-.3-.46-.64-.76-1.03-.89-.39-.13-.78-.14-1.16-.02-.39.12-.67.27-.85.45Z"/>
        <path class="cls-1" d="M51.33,120.63c-.54-.46-.93-1.09-1.16-1.88-.23-.79-.35-1.61-.35-2.46,0-.7.1-1.4.29-2.09.19-.7.5-1.28.91-1.75.67-.78,1.54-1.24,2.6-1.38,1.06-.14,2.02-.06,2.87.25.98.39,1.71,1.06,2.17,2.02.44.85.66,1.85.66,2.99,0,.83-.09,1.54-.27,2.13-.18.6-.41,1.1-.7,1.51-.62.85-1.41,1.38-2.37,1.59-.85.23-1.71.25-2.58.06-.87-.19-1.56-.52-2.08-.99ZM53.19,113.8c-.54.59-.79,1.48-.74,2.66.05,1.18.27,2,.66,2.46.16.21.43.38.81.52.39.14.78.16,1.18.04.4-.12.76-.41,1.07-.87.31-.46.48-1.21.5-2.25,0-.93-.15-1.63-.45-2.1-.3-.46-.64-.76-1.03-.89-.39-.13-.78-.14-1.16-.02-.39.12-.67.27-.85.45Z"/>
        <path class="cls-1" d="M60.74,121.56v-10.63c0-.93.25-1.63.74-2.09.47-.44,1.23-.66,2.29-.66.26,0,.47.01.62.04.28,0,.5.01.66.04v2.13h-.7c-.36,0-.62.05-.78.16-.13.1-.19.31-.19.62v.7h1.67v.58c0,.39-.13.71-.39.95-.26.25-.56.37-.89.37h-.39v7.8h-2.64Z"/>
        <path class="cls-1" d="M70.81,121.56c-.85.05-1.78.04-2.77-.04-1-.08-1.49-.71-1.49-1.9v-11.41h1.4c.34,0,.63.13.89.39.26.26.39.57.39.93v1.75h1.59v.54c0,.39-.13.71-.39.95s-.57.37-.93.37h-.27v5.74c0,.44.26.66.78.66h.81v2.02Z"/>
        <path class="cls-1" d="M73.32,120.63c-.54-.46-.93-1.09-1.16-1.88-.23-.79-.35-1.61-.35-2.46,0-.7.1-1.4.29-2.09.19-.7.5-1.28.91-1.75.67-.78,1.54-1.24,2.6-1.38,1.06-.14,2.02-.06,2.87.25.98.39,1.71,1.06,2.17,2.02.44.85.66,1.85.66,2.99,0,.83-.09,1.54-.27,2.13-.18.6-.41,1.1-.7,1.51-.62.85-1.41,1.38-2.37,1.59-.85.23-1.71.25-2.58.06-.87-.19-1.56-.52-2.08-.99ZM75.18,113.8c-.54.59-.79,1.48-.74,2.66.05,1.18.27,2,.66,2.46.16.21.43.38.81.52.39.14.78.16,1.18.04.4-.12.76-.41,1.07-.87.31-.46.48-1.21.5-2.25,0-.93-.15-1.63-.45-2.1-.3-.46-.64-.76-1.03-.89-.39-.13-.78-.14-1.16-.02-.39.12-.67.27-.85.45Z"/>
        <path class="cls-1" d="M85.37,124.05c0,.36-.13.67-.39.93s-.57.39-.93.39h-1.32v-9.66c0-1.81.53-3.05,1.59-3.71s2.21-.99,3.45-.99c.65,0,1.3.12,1.96.37.66.25,1.18.6,1.57,1.07.78,1.01,1.16,2.3,1.16,3.88s-.39,2.95-1.16,3.96c-.78.98-1.77,1.47-2.99,1.47-.65,0-1.22-.12-1.71-.35-.52-.26-.93-.66-1.24-1.2v3.84ZM89.8,116.44c0-1.01-.19-1.78-.58-2.33-.39-.54-.94-.81-1.67-.81s-1.24.27-1.63.81c-.36.49-.54,1.27-.54,2.33,0,.98.19,1.72.58,2.21.39.54.94.81,1.67.81.67,0,1.2-.27,1.59-.81.39-.54.58-1.28.58-2.21Z"/>
        <path class="cls-1" d="M99.39,117.41h2.72c.1.78.4,1.32.89,1.63.52.36,1.23.54,2.13.54.8,0,1.41-.14,1.82-.43.41-.29.62-.7.62-1.24,0-.83-1.16-1.5-3.49-2.02l-.08-.04-.31-.08c-1.32-.28-2.2-.58-2.64-.89-.52-.28-.88-.7-1.09-1.24-.26-.47-.39-1.06-.39-1.79,0-1.27.44-2.26,1.32-2.99.88-.7,2.16-1.05,3.84-1.05,1.58,0,2.79.36,3.65,1.09.88.8,1.34,1.85,1.4,3.14h-1.55c-.6,0-1.02-.27-1.28-.82-.13-.26-.31-.48-.54-.66-.47-.34-1.1-.5-1.9-.5s-1.33.14-1.67.43c-.39.29-.58.69-.58,1.2,0,.7.75,1.22,2.25,1.55.44.13.76.21.97.23.47.16.87.28,1.22.37.35.09.63.16.83.21.36.16.72.31,1.09.46.52.31.92.71,1.2,1.2.28.54.43,1.14.43,1.79,0,1.4-.47,2.48-1.4,3.26-.93.72-2.25,1.09-3.96,1.09s-3.08-.38-3.96-1.12c-.96-.75-1.47-1.86-1.55-3.34Z"/>
        <path class="cls-1" d="M113.07,120.63c-.54-.46-.93-1.09-1.16-1.88-.23-.79-.35-1.61-.35-2.46,0-.7.1-1.4.29-2.09.19-.7.5-1.28.91-1.75.67-.78,1.54-1.24,2.6-1.38,1.06-.14,2.02-.06,2.87.25.98.39,1.71,1.06,2.17,2.02.44.85.66,1.85.66,2.99,0,.83-.09,1.54-.27,2.13-.18.6-.41,1.1-.7,1.51-.62.85-1.41,1.38-2.37,1.59-.85.23-1.71.25-2.58.06-.87-.19-1.56-.52-2.08-.99ZM114.93,113.8c-.54.59-.79,1.48-.74,2.66.05,1.18.27,2,.66,2.46.16.21.43.38.81.52.39.14.78.16,1.18.04.4-.12.76-.41,1.07-.87.31-.46.48-1.21.5-2.25,0-.93-.15-1.63-.45-2.1-.3-.46-.64-.76-1.03-.89-.39-.13-.78-.14-1.16-.02-.39.12-.67.27-.85.45Z"/>
        <path class="cls-1" d="M122.6,108.21h1.4c.36,0,.67.12.93.37s.39.55.39.91v12.07h-2.72v-13.35Z"/>
        <path class="cls-1" d="M133.37,121.14c-.54.29-1.12.46-1.73.52s-1.14.1-1.61.1c-.93,0-1.75-.25-2.45-.76-.7-.5-1.05-1.34-1.05-2.5,0-1.09.32-1.86.95-2.33s1.44-.78,2.42-.93c.13,0,.28-.02.47-.06.18-.04.39-.07.62-.1,1.14-.16,1.71-.49,1.71-1.01,0-.39-.2-.64-.6-.76s-.77-.17-1.11-.17c-.36,0-.69.05-.97.16-.29.1-.49.3-.62.58h-2.6c.1-.8.47-1.46,1.09-1.98.7-.59,1.69-.89,2.99-.89,1.45,0,2.53.25,3.26.74.75.52,1.12,1.24,1.12,2.17v3.53c0,1.04-.19,1.84-.56,2.43s-.82,1-1.34,1.26ZM132.75,116.36c-.36.18-.87.35-1.51.5l-.89.19c-.46.13-.8.3-1.01.5-.18.28-.27.57-.27.85,0,.39.12.7.35.93.23.21.57.31,1.01.31.72,0,1.29-.21,1.71-.62s.62-.98.62-1.71v-.97Z"/>
        <path class="cls-1" d="M136.65,121.56v-5c0-1.01.15-1.86.45-2.54.3-.68.7-1.24,1.22-1.65.49-.39,1.07-.67,1.73-.85.66-.18,1.34-.27,2.04-.27h.39v2.75h-.89c-.75,0-1.31.18-1.67.54s-.54.93-.54,1.71v5.32h-2.72Z"/>
        <path class="cls-1" d="M149.19,117.41h2.72c.1.78.4,1.32.89,1.63.52.36,1.23.54,2.13.54.8,0,1.41-.14,1.82-.43.41-.29.62-.7.62-1.24,0-.83-1.16-1.5-3.49-2.02l-.08-.04-.31-.08c-1.32-.28-2.2-.58-2.64-.89-.52-.28-.88-.7-1.09-1.24-.26-.47-.39-1.06-.39-1.79,0-1.27.44-2.26,1.32-2.99.88-.7,2.16-1.05,3.84-1.05,1.58,0,2.79.36,3.65,1.09.88.8,1.34,1.85,1.4,3.14h-1.55c-.6,0-1.02-.27-1.28-.82-.13-.26-.31-.48-.54-.66-.47-.34-1.1-.5-1.9-.5s-1.33.14-1.67.43c-.39.29-.58.69-.58,1.2,0,.7.75,1.22,2.25,1.55.44.13.76.21.97.23.47.16.87.28,1.22.37.35.09.63.16.83.21.36.16.72.31,1.09.46.52.31.92.71,1.2,1.2.28.54.43,1.14.43,1.79,0,1.4-.47,2.48-1.4,3.26-.93.72-2.25,1.09-3.96,1.09s-3.08-.38-3.96-1.12c-.96-.75-1.47-1.86-1.55-3.34Z"/>
        <path class="cls-1" d="M162.87,120.63c-.54-.46-.93-1.09-1.16-1.88-.23-.79-.35-1.61-.35-2.46,0-.7.1-1.4.29-2.09.19-.7.5-1.28.91-1.75.67-.78,1.54-1.24,2.6-1.38,1.06-.14,2.02-.06,2.87.25.98.39,1.71,1.06,2.17,2.02.44.85.66,1.85.66,2.99,0,.83-.09,1.54-.27,2.13-.18.6-.41,1.1-.7,1.51-.62.85-1.41,1.38-2.37,1.59-.85.23-1.71.25-2.58.06-.87-.19-1.56-.52-2.08-.99ZM164.74,113.8c-.54.59-.79,1.48-.74,2.66.05,1.18.27,2,.66,2.46.16.21.43.38.81.52.39.14.78.16,1.18.04.4-.12.76-.41,1.07-.87.31-.46.48-1.21.5-2.25,0-.93-.15-1.63-.45-2.1-.3-.46-.64-.76-1.03-.89-.39-.13-.78-.14-1.16-.02-.39.12-.67.27-.85.45Z"/>
        <path class="cls-1" d="M172.4,108.21h1.4c.36,0,.67.12.93.37s.39.55.39.91v12.07h-2.72v-13.35Z"/>
        <path class="cls-1" d="M185.58,111.24v6.05c0,1.84-.48,3.04-1.44,3.61-.96.57-2,.85-3.14.85-1.11-.05-2.13-.36-3.04-.93-.92-.57-1.38-1.75-1.38-3.53v-6.05h2.72v6.6c0,.62.18,1.07.54,1.36.36.29.78.43,1.24.43s.89-.14,1.26-.43c.38-.28.56-.74.56-1.36v-5.28c0-.36.12-.67.37-.93.25-.26.56-.39.95-.39h1.36Z"/>
        <path class="cls-1" d="M191.58,121.56c-.85.05-1.78.04-2.77-.04-1-.08-1.49-.71-1.49-1.9v-11.41h1.4c.34,0,.63.13.89.39.26.26.39.57.39.93v1.75h1.59v.54c0,.39-.13.71-.39.95s-.57.37-.93.37h-.27v5.74c0,.44.26.66.78.66h.81v2.02Z"/>
        <path class="cls-1" d="M193.04,108.21h1.4c.36,0,.67.13.93.39.26.26.39.57.39.93v.81h-2.72v-2.13ZM193.04,111.24h1.4c.36,0,.67.13.93.39.26.26.39.57.39.93v9h-2.72v-10.32Z"/>
        <path class="cls-1" d="M198.14,120.63c-.54-.46-.93-1.09-1.16-1.88-.23-.79-.35-1.61-.35-2.46,0-.7.1-1.4.29-2.09.19-.7.5-1.28.91-1.75.67-.78,1.54-1.24,2.6-1.38,1.06-.14,2.02-.06,2.87.25.98.39,1.71,1.06,2.17,2.02.44.85.66,1.85.66,2.99,0,.83-.09,1.54-.27,2.13-.18.6-.41,1.1-.7,1.51-.62.85-1.41,1.38-2.37,1.59-.85.23-1.71.25-2.58.06-.87-.19-1.56-.52-2.08-.99ZM200.01,113.8c-.54.59-.79,1.48-.74,2.66.05,1.18.27,2,.66,2.46.16.21.43.38.81.52.39.14.78.16,1.18.04.4-.12.76-.41,1.07-.87.31-.46.48-1.21.5-2.25,0-.93-.15-1.63-.45-2.1-.3-.46-.64-.76-1.03-.89-.39-.13-.78-.14-1.16-.02-.39.12-.67.27-.85.45Z"/>
        <path class="cls-1" d="M216.56,121.56h-1.36c-.39,0-.71-.12-.95-.37-.25-.25-.37-.56-.37-.95v-5.28c0-.62-.19-1.07-.56-1.36-.38-.28-.79-.43-1.26-.43s-.88.14-1.24.43c-.36.29-.54.74-.54,1.36v6.6h-2.72v-6.05c0-1.76.46-2.94,1.38-3.53.92-.59,1.93-.92,3.04-.97,1.14,0,2.19.3,3.14.89.96.59,1.44,1.8,1.44,3.61v6.05Z"/>
        <path class="cls-1" d="M217.75,118.15h2.64c.03.52.22.91.58,1.16.39.26.91.39,1.55.39.46,0,.87-.09,1.2-.27.31-.18.47-.43.47-.74,0-.47-.54-.82-1.63-1.05-.46-.08-.81-.16-1.05-.23-1.37-.34-2.29-.74-2.75-1.2-.52-.47-.78-1.09-.78-1.86,0-.98.38-1.8,1.12-2.44.78-.59,1.79-.89,3.03-.89,1.34,0,2.42.3,3.22.89.75.65,1.15,1.49,1.2,2.52h-1.67c-.49,0-.87-.22-1.12-.66l-.31-.31c-.31-.23-.74-.35-1.28-.35s-.91.08-1.16.23c-.23.16-.35.39-.35.7,0,.41.67.76,2.02,1.05.16.05.29.09.41.12.12.03.23.04.33.04,1.32.34,2.24.72,2.75,1.16.49.46.74,1.09.74,1.86,0,1.14-.41,2.02-1.24,2.64-.78.57-1.94.85-3.49.85s-2.57-.3-3.3-.89c-.75-.59-1.12-1.46-1.12-2.6v-.12Z"/>
      </g>
      <g>
        <polygon class="cls-1" points="150.82 35.65 152.15 36.68 160.69 35.6 160.75 36.13 161 30.76 150.51 32.2 151.03 32.23 150.82 35.65"/>
        <polygon class="cls-1" points="109.24 51.09 108.27 50.15 98.27 51.27 98.21 50.75 97.32 57.22 109.17 56.05 108.65 55.99 109.24 51.09"/>
        <polygon class="cls-1" points="149.31 43.24 149.55 39.3 148.22 38.24 131.44 40.36 130.09 41.65 129.73 45.54 130.89 46.56 147.8 44.67 149.31 43.24"/>
        <polygon class="cls-1" points="128.67 45.66 129.03 41.78 127.9 40.81 112.36 42.77 111.15 43.95 110.69 47.78 111.67 48.71 127.31 46.96 128.67 45.66"/>
        <polygon class="cls-1" points="128.36 49.05 127.21 48.03 111.54 49.78 110.3 50.97 109.7 56 128.41 54.16 127.89 54.11 128.36 49.05"/>
        <polygon class="cls-1" points="150.14 46.73 149.81 52.06 160.08 51.05 160.38 44.31 151.68 45.28 150.14 46.73"/>
        <polygon class="cls-1" points="130.39 38.34 131.52 39.3 148.3 37.17 149.76 35.78 149.98 32.27 130.18 34.98 130.7 35.02 130.39 38.34"/>
        <polygon class="cls-1" points="109.62 47.9 110.08 44.08 109.13 43.18 99.21 44.44 99.15 43.92 98.28 50.21 108.4 49.08 109.62 47.9"/>
        <polygon class="cls-1" points="149.08 46.84 147.73 45.73 130.8 47.62 129.42 48.94 128.94 54.11 149.29 52.11 148.76 52.08 149.08 46.84"/>
        <polygon class="cls-1" points="152.11 37.74 150.61 39.17 150.36 43.12 151.74 44.22 160.35 43.26 160.41 43.78 160.73 36.65 152.11 37.74"/>
        <polygon class="cls-1" points="111.53 40.83 112.48 41.71 128.02 39.74 129.33 38.48 129.65 35.05 111.4 37.54 111.91 37.61 111.53 40.83"/>
        <polygon class="cls-1" points="110.46 40.97 110.86 37.62 99.81 39.13 99.22 43.38 109.28 42.11 110.46 40.97"/>
        <polygon class="cls-1" points="106.98 69.86 107.46 65.81 106.45 64.75 96.28 65.58 96.24 65.06 95.31 71.8 105.65 71.12 106.98 69.86"/>
        <polygon class="cls-1" points="126.57 68.46 126.95 64.33 125.74 63.18 109.84 64.47 108.53 65.72 108.04 69.79 109.09 70.89 125.1 69.84 126.57 68.46"/>
        <polygon class="cls-1" points="149.17 62.65 148.91 66.86 150.39 68.18 159.27 67.59 159.31 68.11 159.66 60.42 150.78 61.14 149.17 62.65"/>
        <polygon class="cls-1" points="128.34 60.67 129.56 61.82 146.75 60.42 148.35 58.93 148.57 55.18 128.14 57.07 128.66 57.12 128.34 60.67"/>
        <polygon class="cls-1" points="107.87 62.46 108.29 58.91 96.94 59.95 96.31 64.53 106.58 63.69 107.87 62.46"/>
        <polygon class="cls-1" points="148.67 70.77 148.32 76.48 158.95 75.93 159.28 68.64 150.33 69.23 148.67 70.77"/>
        <polygon class="cls-1" points="147.62 70.83 146.15 69.5 128.78 70.65 127.29 72.05 126.78 77.57 147.8 76.5 147.27 76.47 147.62 70.83"/>
        <polygon class="cls-1" points="108.93 62.37 109.96 63.41 125.84 62.12 127.28 60.76 127.61 57.12 108.83 58.86 109.35 58.92 108.93 62.37"/>
        <polygon class="cls-1" points="106.56 73.29 105.52 72.18 95.27 72.85 95.23 72.34 94.28 79.23 106.45 78.61 105.93 78.54 106.56 73.29"/>
        <polygon class="cls-1" points="126.23 72.12 125 70.9 108.97 71.95 107.62 73.23 106.98 78.58 126.25 77.6 125.73 77.55 126.23 72.12"/>
        <polygon class="cls-1" points="146.68 61.47 129.46 62.87 128.01 64.25 127.63 68.38 128.88 69.59 146.22 68.45 147.86 66.93 148.11 62.73 146.68 61.47"/>
        <polygon class="cls-1" points="149.1 55.13 149.63 55.17 149.4 58.84 150.84 60.08 159.64 59.37 159.68 59.89 159.94 54.13 149.1 55.13"/>
        <polygon class="cls-1" points="103.63 97.63 102.51 96.3 91.99 96.46 91.98 95.94 91.03 102.86 103.14 102.87 103 102.85 103.63 97.63"/>
        <polygon class="cls-1" points="105.03 85.98 105.54 81.76 93.86 82.28 93.12 87.63 103.64 87.3 105.03 85.98"/>
        <polygon class="cls-1" points="104.08 93.91 104.6 89.6 103.5 88.35 93.07 88.68 93.05 88.16 92.05 95.41 102.64 95.26 104.08 93.91"/>
        <polygon class="cls-1" points="144.43 95.69 126.56 95.95 124.95 97.45 124.45 102.88 145.65 102.89 145.99 97.28 144.43 95.69"/>
        <polygon class="cls-1" points="147.58 88.51 147.31 93.01 148.9 94.58 158.08 94.45 158.09 94.98 158.47 86.62 149.33 86.91 147.58 88.51"/>
        <polygon class="cls-1" points="124.26 93.49 124.67 89.1 123.37 87.72 107.07 88.24 105.65 89.58 105.13 93.89 106.26 95.2 122.67 94.97 124.26 93.49"/>
        <polygon class="cls-1" points="106.09 85.94 107.2 87.19 123.47 86.67 125.02 85.23 125.42 80.88 105.81 81.75 106.58 81.84 106.09 85.94"/>
        <polygon class="cls-1" points="145 87.04 127.3 87.6 125.72 89.07 125.31 93.47 126.66 94.91 144.49 94.65 146.25 93.03 146.53 88.54 145 87.04"/>
        <polygon class="cls-1" points="126.08 85.19 127.39 86.55 145.07 85.99 146.78 84.41 147.06 79.92 125.62 80.87 126.47 80.95 126.08 85.19"/>
        <polygon class="cls-1" points="147.14 79.92 148.1 79.97 147.83 84.37 149.39 85.86 158.48 85.57 158.49 86.09 158.8 79.4 147.14 79.92"/>
        <polygon class="cls-1" points="147.04 97.27 146.7 102.89 157.73 102.9 158.07 95.5 148.84 95.63 147.04 97.27"/>
        <polygon class="cls-1" points="123.9 97.46 122.57 96.01 106.14 96.25 104.68 97.62 104.05 102.87 123.4 102.88 123.4 102.88 123.9 97.46"/>
      </g>
    </g>
  </g>
</svg>