<svg id="visual" viewBox="0 0 900 675" width="900" height="675" xmlns="http://www.w3.org/2000/svg" xmlns:xlink="http://www.w3.org/1999/xlink" version="1.1"><rect x="0" y="0" width="900" height="675" fill="#fff"></rect><defs><linearGradient id="grad1_0" x1="25%" y1="0%" x2="100%" y2="100%"><stop offset="23.333333333333336%" stop-color="#888faf" stop-opacity="1"></stop><stop offset="76.66666666666666%" stop-color="#888faf" stop-opacity="1"></stop></linearGradient></defs><defs><linearGradient id="grad1_1" x1="25%" y1="0%" x2="100%" y2="100%"><stop offset="23.333333333333336%" stop-color="#888faf" stop-opacity="1"></stop><stop offset="76.66666666666666%" stop-color="#ffffff" stop-opacity="1"></stop></linearGradient></defs><defs><linearGradient id="grad2_0" x1="0%" y1="0%" x2="75%" y2="100%"><stop offset="23.333333333333336%" stop-color="#888faf" stop-opacity="1"></stop><stop offset="76.66666666666666%" stop-color="#888faf" stop-opacity="1"></stop></linearGradient></defs><defs><linearGradient id="grad2_1" x1="0%" y1="0%" x2="75%" y2="100%"><stop offset="23.333333333333336%" stop-color="#ffffff" stop-opacity="1"></stop><stop offset="76.66666666666666%" stop-color="#888faf" stop-opacity="1"></stop></linearGradient></defs><g transform="translate(900, 0)"><path d="M0 225C-28.2 219.4 -56.3 213.9 -84.6 204.2C-112.8 194.5 -141.1 180.7 -159.1 159.1C-177.1 137.5 -184.8 108.2 -194 80.4C-203.3 52.6 -214.1 26.3 -225 0L0 0Z" fill="#c3c5d6"></path><path d="M0 112.5C-14.1 109.7 -28.2 106.9 -42.3 102.1C-56.4 97.2 -70.6 90.3 -79.5 79.5C-88.5 68.8 -92.4 54.1 -97 40.2C-101.6 26.3 -107.1 13.1 -112.5 0L0 0Z" fill="#888faf"></path></g><g transform="translate(0, 675)"><path d="M0 -225C26 -213.6 52.1 -202.3 80 -193.1C107.9 -183.9 137.7 -176.9 159.1 -159.1C180.5 -141.2 193.7 -112.5 203.3 -84.2C212.8 -55.9 218.9 -27.9 225 0L0 0Z" fill="#c3c5d6"></path><path d="M0 -112.5C13 -106.8 26 -101.1 40 -96.5C53.9 -92 68.8 -88.5 79.5 -79.5C90.3 -70.6 96.8 -56.3 101.6 -42.1C106.4 -27.9 109.5 -14 112.5 0L0 0Z" fill="#888faf"></path></g></svg>